%TF.GenerationSoftware,KiCad,Pcbnew,(5.1.10)-1*%
%TF.CreationDate,2021-10-05T19:45:30+09:00*%
%TF.ProjectId,mr8-iso-mux-sbus-4ws,6d72382d-6973-46f2-9d6d-75782d736275,1*%
%TF.SameCoordinates,Original*%
%TF.FileFunction,Copper,L1,Top*%
%TF.FilePolarity,Positive*%
%FSLAX46Y46*%
G04 Gerber Fmt 4.6, Leading zero omitted, Abs format (unit mm)*
G04 Created by KiCad (PCBNEW (5.1.10)-1) date 2021-10-05 19:45:30*
%MOMM*%
%LPD*%
G01*
G04 APERTURE LIST*
%TA.AperFunction,ComponentPad*%
%ADD10R,1.500000X1.500000*%
%TD*%
%TA.AperFunction,ComponentPad*%
%ADD11O,1.700000X1.700000*%
%TD*%
%TA.AperFunction,ComponentPad*%
%ADD12O,1.500000X1.500000*%
%TD*%
%TA.AperFunction,SMDPad,CuDef*%
%ADD13R,1.000000X1.000000*%
%TD*%
%TA.AperFunction,ViaPad*%
%ADD14C,1.200000*%
%TD*%
%TA.AperFunction,ViaPad*%
%ADD15C,1.000000*%
%TD*%
%TA.AperFunction,ViaPad*%
%ADD16C,0.800000*%
%TD*%
%TA.AperFunction,Conductor*%
%ADD17C,0.300000*%
%TD*%
%TA.AperFunction,Conductor*%
%ADD18C,0.600000*%
%TD*%
%TA.AperFunction,Conductor*%
%ADD19C,0.200000*%
%TD*%
%TA.AperFunction,Conductor*%
%ADD20C,0.254000*%
%TD*%
%TA.AperFunction,Conductor*%
%ADD21C,0.100000*%
%TD*%
G04 APERTURE END LIST*
D10*
%TO.P,J4,1*%
%TO.N,/PWM_STR_VEH_INV*%
X136525000Y-95250000D03*
D11*
%TO.P,J4,2*%
%TO.N,+V_VEH*%
X136525000Y-97790000D03*
%TO.P,J4,3*%
%TO.N,GND*%
X136525000Y-100330000D03*
%TD*%
%TO.P,J3,3*%
%TO.N,GND*%
X136525000Y-91440000D03*
%TO.P,J3,2*%
%TO.N,+V_VEH*%
X136525000Y-88900000D03*
D10*
%TO.P,J3,1*%
%TO.N,/PWM_STR_VEH*%
X136525000Y-86360000D03*
%TD*%
D11*
%TO.P,J2,3*%
%TO.N,GND*%
X136525000Y-82550000D03*
%TO.P,J2,2*%
%TO.N,+V_VEH*%
X136525000Y-80010000D03*
D10*
%TO.P,J2,1*%
%TO.N,/PWM_THR_VEH*%
X136525000Y-77470000D03*
%TD*%
D12*
%TO.P,J5,4*%
%TO.N,/CON_EXT*%
X133350000Y-100330000D03*
%TO.P,J5,3*%
%TO.N,/CON_LOST*%
X133350000Y-97790000D03*
%TO.P,J5,2*%
%TO.N,+3V3*%
X133350000Y-95250000D03*
D10*
%TO.P,J5,1*%
%TO.N,GND*%
X133350000Y-92710000D03*
%TD*%
D12*
%TO.P,J6,6*%
%TO.N,/PWM_STR_EXT*%
X133350000Y-90170000D03*
%TO.P,J6,5*%
%TO.N,/PWM_THR_EXT*%
X133350000Y-87630000D03*
%TO.P,J6,4*%
%TO.N,/COM_IN_EXT*%
X133350000Y-85090000D03*
%TO.P,J6,3*%
%TO.N,/S.BUS_OUT_EXT*%
X133350000Y-82550000D03*
%TO.P,J6,2*%
%TO.N,+V_EXT*%
X133350000Y-80010000D03*
D10*
%TO.P,J6,1*%
%TO.N,GND_EXT*%
X133350000Y-77470000D03*
%TD*%
D12*
%TO.P,J1,10*%
%TO.N,/PWM_A*%
X130810000Y-100330000D03*
%TO.P,J1,9*%
%TO.N,/PWM_B*%
X130810000Y-97790000D03*
%TO.P,J1,8*%
%TO.N,/PWM_C*%
X130810000Y-95250000D03*
%TO.P,J1,7*%
%TO.N,/PWM_D*%
X130810000Y-92710000D03*
%TO.P,J1,6*%
%TO.N,/PWM_E*%
X130810000Y-90170000D03*
%TO.P,J1,5*%
%TO.N,/PWM_F*%
X130810000Y-87630000D03*
%TO.P,J1,4*%
%TO.N,/PWM_G*%
X130810000Y-85090000D03*
%TO.P,J1,3*%
%TO.N,/PWM_H*%
X130810000Y-82550000D03*
%TO.P,J1,2*%
%TO.N,+V_VEH*%
X130810000Y-80010000D03*
D10*
%TO.P,J1,1*%
%TO.N,GND*%
X130810000Y-77470000D03*
%TD*%
D13*
%TO.P,D1,1*%
%TO.N,+5V*%
X120543000Y-78740000D03*
%TO.P,D1,2*%
%TO.N,+V_VEH*%
X123043000Y-78740000D03*
%TD*%
%TO.P,C6,2*%
%TO.N,GND_EXT*%
%TA.AperFunction,SMDPad,CuDef*%
G36*
G01*
X106863000Y-78502500D02*
X106863000Y-78977500D01*
G75*
G02*
X106625500Y-79215000I-237500J0D01*
G01*
X106025500Y-79215000D01*
G75*
G02*
X105788000Y-78977500I0J237500D01*
G01*
X105788000Y-78502500D01*
G75*
G02*
X106025500Y-78265000I237500J0D01*
G01*
X106625500Y-78265000D01*
G75*
G02*
X106863000Y-78502500I0J-237500D01*
G01*
G37*
%TD.AperFunction*%
%TO.P,C6,1*%
%TO.N,+V_EXT*%
%TA.AperFunction,SMDPad,CuDef*%
G36*
G01*
X108588000Y-78502500D02*
X108588000Y-78977500D01*
G75*
G02*
X108350500Y-79215000I-237500J0D01*
G01*
X107750500Y-79215000D01*
G75*
G02*
X107513000Y-78977500I0J237500D01*
G01*
X107513000Y-78502500D01*
G75*
G02*
X107750500Y-78265000I237500J0D01*
G01*
X108350500Y-78265000D01*
G75*
G02*
X108588000Y-78502500I0J-237500D01*
G01*
G37*
%TD.AperFunction*%
%TD*%
%TO.P,C5,2*%
%TO.N,GND_EXT*%
%TA.AperFunction,SMDPad,CuDef*%
G36*
G01*
X113848000Y-78502500D02*
X113848000Y-78977500D01*
G75*
G02*
X113610500Y-79215000I-237500J0D01*
G01*
X113010500Y-79215000D01*
G75*
G02*
X112773000Y-78977500I0J237500D01*
G01*
X112773000Y-78502500D01*
G75*
G02*
X113010500Y-78265000I237500J0D01*
G01*
X113610500Y-78265000D01*
G75*
G02*
X113848000Y-78502500I0J-237500D01*
G01*
G37*
%TD.AperFunction*%
%TO.P,C5,1*%
%TO.N,+V_EXT*%
%TA.AperFunction,SMDPad,CuDef*%
G36*
G01*
X115573000Y-78502500D02*
X115573000Y-78977500D01*
G75*
G02*
X115335500Y-79215000I-237500J0D01*
G01*
X114735500Y-79215000D01*
G75*
G02*
X114498000Y-78977500I0J237500D01*
G01*
X114498000Y-78502500D01*
G75*
G02*
X114735500Y-78265000I237500J0D01*
G01*
X115335500Y-78265000D01*
G75*
G02*
X115573000Y-78502500I0J-237500D01*
G01*
G37*
%TD.AperFunction*%
%TD*%
%TO.P,U4,8*%
%TO.N,+3V3*%
%TA.AperFunction,SMDPad,CuDef*%
G36*
G01*
X108943000Y-85320000D02*
X109243000Y-85320000D01*
G75*
G02*
X109393000Y-85470000I0J-150000D01*
G01*
X109393000Y-87120000D01*
G75*
G02*
X109243000Y-87270000I-150000J0D01*
G01*
X108943000Y-87270000D01*
G75*
G02*
X108793000Y-87120000I0J150000D01*
G01*
X108793000Y-85470000D01*
G75*
G02*
X108943000Y-85320000I150000J0D01*
G01*
G37*
%TD.AperFunction*%
%TO.P,U4,7*%
%TO.N,/PWM_THR*%
%TA.AperFunction,SMDPad,CuDef*%
G36*
G01*
X107673000Y-85320000D02*
X107973000Y-85320000D01*
G75*
G02*
X108123000Y-85470000I0J-150000D01*
G01*
X108123000Y-87120000D01*
G75*
G02*
X107973000Y-87270000I-150000J0D01*
G01*
X107673000Y-87270000D01*
G75*
G02*
X107523000Y-87120000I0J150000D01*
G01*
X107523000Y-85470000D01*
G75*
G02*
X107673000Y-85320000I150000J0D01*
G01*
G37*
%TD.AperFunction*%
%TO.P,U4,6*%
%TO.N,/PWM_STR*%
%TA.AperFunction,SMDPad,CuDef*%
G36*
G01*
X106403000Y-85320000D02*
X106703000Y-85320000D01*
G75*
G02*
X106853000Y-85470000I0J-150000D01*
G01*
X106853000Y-87120000D01*
G75*
G02*
X106703000Y-87270000I-150000J0D01*
G01*
X106403000Y-87270000D01*
G75*
G02*
X106253000Y-87120000I0J150000D01*
G01*
X106253000Y-85470000D01*
G75*
G02*
X106403000Y-85320000I150000J0D01*
G01*
G37*
%TD.AperFunction*%
%TO.P,U4,5*%
%TO.N,GND*%
%TA.AperFunction,SMDPad,CuDef*%
G36*
G01*
X105133000Y-85320000D02*
X105433000Y-85320000D01*
G75*
G02*
X105583000Y-85470000I0J-150000D01*
G01*
X105583000Y-87120000D01*
G75*
G02*
X105433000Y-87270000I-150000J0D01*
G01*
X105133000Y-87270000D01*
G75*
G02*
X104983000Y-87120000I0J150000D01*
G01*
X104983000Y-85470000D01*
G75*
G02*
X105133000Y-85320000I150000J0D01*
G01*
G37*
%TD.AperFunction*%
%TO.P,U4,4*%
%TO.N,GND_EXT*%
%TA.AperFunction,SMDPad,CuDef*%
G36*
G01*
X105133000Y-80370000D02*
X105433000Y-80370000D01*
G75*
G02*
X105583000Y-80520000I0J-150000D01*
G01*
X105583000Y-82170000D01*
G75*
G02*
X105433000Y-82320000I-150000J0D01*
G01*
X105133000Y-82320000D01*
G75*
G02*
X104983000Y-82170000I0J150000D01*
G01*
X104983000Y-80520000D01*
G75*
G02*
X105133000Y-80370000I150000J0D01*
G01*
G37*
%TD.AperFunction*%
%TO.P,U4,3*%
%TO.N,/PWM_STR_EXT*%
%TA.AperFunction,SMDPad,CuDef*%
G36*
G01*
X106403000Y-80370000D02*
X106703000Y-80370000D01*
G75*
G02*
X106853000Y-80520000I0J-150000D01*
G01*
X106853000Y-82170000D01*
G75*
G02*
X106703000Y-82320000I-150000J0D01*
G01*
X106403000Y-82320000D01*
G75*
G02*
X106253000Y-82170000I0J150000D01*
G01*
X106253000Y-80520000D01*
G75*
G02*
X106403000Y-80370000I150000J0D01*
G01*
G37*
%TD.AperFunction*%
%TO.P,U4,2*%
%TO.N,/PWM_THR_EXT*%
%TA.AperFunction,SMDPad,CuDef*%
G36*
G01*
X107673000Y-80370000D02*
X107973000Y-80370000D01*
G75*
G02*
X108123000Y-80520000I0J-150000D01*
G01*
X108123000Y-82170000D01*
G75*
G02*
X107973000Y-82320000I-150000J0D01*
G01*
X107673000Y-82320000D01*
G75*
G02*
X107523000Y-82170000I0J150000D01*
G01*
X107523000Y-80520000D01*
G75*
G02*
X107673000Y-80370000I150000J0D01*
G01*
G37*
%TD.AperFunction*%
%TO.P,U4,1*%
%TO.N,+V_EXT*%
%TA.AperFunction,SMDPad,CuDef*%
G36*
G01*
X108943000Y-80370000D02*
X109243000Y-80370000D01*
G75*
G02*
X109393000Y-80520000I0J-150000D01*
G01*
X109393000Y-82170000D01*
G75*
G02*
X109243000Y-82320000I-150000J0D01*
G01*
X108943000Y-82320000D01*
G75*
G02*
X108793000Y-82170000I0J150000D01*
G01*
X108793000Y-80520000D01*
G75*
G02*
X108943000Y-80370000I150000J0D01*
G01*
G37*
%TD.AperFunction*%
%TD*%
%TO.P,U3,8*%
%TO.N,+3V3*%
%TA.AperFunction,SMDPad,CuDef*%
G36*
G01*
X115928000Y-85320000D02*
X116228000Y-85320000D01*
G75*
G02*
X116378000Y-85470000I0J-150000D01*
G01*
X116378000Y-87120000D01*
G75*
G02*
X116228000Y-87270000I-150000J0D01*
G01*
X115928000Y-87270000D01*
G75*
G02*
X115778000Y-87120000I0J150000D01*
G01*
X115778000Y-85470000D01*
G75*
G02*
X115928000Y-85320000I150000J0D01*
G01*
G37*
%TD.AperFunction*%
%TO.P,U3,7*%
%TO.N,/S.BUS_OUT*%
%TA.AperFunction,SMDPad,CuDef*%
G36*
G01*
X114658000Y-85320000D02*
X114958000Y-85320000D01*
G75*
G02*
X115108000Y-85470000I0J-150000D01*
G01*
X115108000Y-87120000D01*
G75*
G02*
X114958000Y-87270000I-150000J0D01*
G01*
X114658000Y-87270000D01*
G75*
G02*
X114508000Y-87120000I0J150000D01*
G01*
X114508000Y-85470000D01*
G75*
G02*
X114658000Y-85320000I150000J0D01*
G01*
G37*
%TD.AperFunction*%
%TO.P,U3,6*%
%TO.N,/COM_IN*%
%TA.AperFunction,SMDPad,CuDef*%
G36*
G01*
X113388000Y-85320000D02*
X113688000Y-85320000D01*
G75*
G02*
X113838000Y-85470000I0J-150000D01*
G01*
X113838000Y-87120000D01*
G75*
G02*
X113688000Y-87270000I-150000J0D01*
G01*
X113388000Y-87270000D01*
G75*
G02*
X113238000Y-87120000I0J150000D01*
G01*
X113238000Y-85470000D01*
G75*
G02*
X113388000Y-85320000I150000J0D01*
G01*
G37*
%TD.AperFunction*%
%TO.P,U3,5*%
%TO.N,GND*%
%TA.AperFunction,SMDPad,CuDef*%
G36*
G01*
X112118000Y-85320000D02*
X112418000Y-85320000D01*
G75*
G02*
X112568000Y-85470000I0J-150000D01*
G01*
X112568000Y-87120000D01*
G75*
G02*
X112418000Y-87270000I-150000J0D01*
G01*
X112118000Y-87270000D01*
G75*
G02*
X111968000Y-87120000I0J150000D01*
G01*
X111968000Y-85470000D01*
G75*
G02*
X112118000Y-85320000I150000J0D01*
G01*
G37*
%TD.AperFunction*%
%TO.P,U3,4*%
%TO.N,GND_EXT*%
%TA.AperFunction,SMDPad,CuDef*%
G36*
G01*
X112118000Y-80370000D02*
X112418000Y-80370000D01*
G75*
G02*
X112568000Y-80520000I0J-150000D01*
G01*
X112568000Y-82170000D01*
G75*
G02*
X112418000Y-82320000I-150000J0D01*
G01*
X112118000Y-82320000D01*
G75*
G02*
X111968000Y-82170000I0J150000D01*
G01*
X111968000Y-80520000D01*
G75*
G02*
X112118000Y-80370000I150000J0D01*
G01*
G37*
%TD.AperFunction*%
%TO.P,U3,3*%
%TO.N,/COM_IN_EXT*%
%TA.AperFunction,SMDPad,CuDef*%
G36*
G01*
X113388000Y-80370000D02*
X113688000Y-80370000D01*
G75*
G02*
X113838000Y-80520000I0J-150000D01*
G01*
X113838000Y-82170000D01*
G75*
G02*
X113688000Y-82320000I-150000J0D01*
G01*
X113388000Y-82320000D01*
G75*
G02*
X113238000Y-82170000I0J150000D01*
G01*
X113238000Y-80520000D01*
G75*
G02*
X113388000Y-80370000I150000J0D01*
G01*
G37*
%TD.AperFunction*%
%TO.P,U3,2*%
%TO.N,/S.BUS_OUT_EXT*%
%TA.AperFunction,SMDPad,CuDef*%
G36*
G01*
X114658000Y-80370000D02*
X114958000Y-80370000D01*
G75*
G02*
X115108000Y-80520000I0J-150000D01*
G01*
X115108000Y-82170000D01*
G75*
G02*
X114958000Y-82320000I-150000J0D01*
G01*
X114658000Y-82320000D01*
G75*
G02*
X114508000Y-82170000I0J150000D01*
G01*
X114508000Y-80520000D01*
G75*
G02*
X114658000Y-80370000I150000J0D01*
G01*
G37*
%TD.AperFunction*%
%TO.P,U3,1*%
%TO.N,+V_EXT*%
%TA.AperFunction,SMDPad,CuDef*%
G36*
G01*
X115928000Y-80370000D02*
X116228000Y-80370000D01*
G75*
G02*
X116378000Y-80520000I0J-150000D01*
G01*
X116378000Y-82170000D01*
G75*
G02*
X116228000Y-82320000I-150000J0D01*
G01*
X115928000Y-82320000D01*
G75*
G02*
X115778000Y-82170000I0J150000D01*
G01*
X115778000Y-80520000D01*
G75*
G02*
X115928000Y-80370000I150000J0D01*
G01*
G37*
%TD.AperFunction*%
%TD*%
%TO.P,U1,14*%
%TO.N,+3V3*%
%TA.AperFunction,SMDPad,CuDef*%
G36*
G01*
X125071000Y-90193000D02*
X125071000Y-89893000D01*
G75*
G02*
X125221000Y-89743000I150000J0D01*
G01*
X126871000Y-89743000D01*
G75*
G02*
X127021000Y-89893000I0J-150000D01*
G01*
X127021000Y-90193000D01*
G75*
G02*
X126871000Y-90343000I-150000J0D01*
G01*
X125221000Y-90343000D01*
G75*
G02*
X125071000Y-90193000I0J150000D01*
G01*
G37*
%TD.AperFunction*%
%TO.P,U1,13*%
%TO.N,/PWM_H*%
%TA.AperFunction,SMDPad,CuDef*%
G36*
G01*
X125071000Y-91463000D02*
X125071000Y-91163000D01*
G75*
G02*
X125221000Y-91013000I150000J0D01*
G01*
X126871000Y-91013000D01*
G75*
G02*
X127021000Y-91163000I0J-150000D01*
G01*
X127021000Y-91463000D01*
G75*
G02*
X126871000Y-91613000I-150000J0D01*
G01*
X125221000Y-91613000D01*
G75*
G02*
X125071000Y-91463000I0J150000D01*
G01*
G37*
%TD.AperFunction*%
%TO.P,U1,12*%
%TO.N,/PWM_D*%
%TA.AperFunction,SMDPad,CuDef*%
G36*
G01*
X125071000Y-92733000D02*
X125071000Y-92433000D01*
G75*
G02*
X125221000Y-92283000I150000J0D01*
G01*
X126871000Y-92283000D01*
G75*
G02*
X127021000Y-92433000I0J-150000D01*
G01*
X127021000Y-92733000D01*
G75*
G02*
X126871000Y-92883000I-150000J0D01*
G01*
X125221000Y-92883000D01*
G75*
G02*
X125071000Y-92733000I0J150000D01*
G01*
G37*
%TD.AperFunction*%
%TO.P,U1,11*%
%TO.N,/PWM_D+H*%
%TA.AperFunction,SMDPad,CuDef*%
G36*
G01*
X125071000Y-94003000D02*
X125071000Y-93703000D01*
G75*
G02*
X125221000Y-93553000I150000J0D01*
G01*
X126871000Y-93553000D01*
G75*
G02*
X127021000Y-93703000I0J-150000D01*
G01*
X127021000Y-94003000D01*
G75*
G02*
X126871000Y-94153000I-150000J0D01*
G01*
X125221000Y-94153000D01*
G75*
G02*
X125071000Y-94003000I0J150000D01*
G01*
G37*
%TD.AperFunction*%
%TO.P,U1,10*%
%TO.N,/PWM_G*%
%TA.AperFunction,SMDPad,CuDef*%
G36*
G01*
X125071000Y-95273000D02*
X125071000Y-94973000D01*
G75*
G02*
X125221000Y-94823000I150000J0D01*
G01*
X126871000Y-94823000D01*
G75*
G02*
X127021000Y-94973000I0J-150000D01*
G01*
X127021000Y-95273000D01*
G75*
G02*
X126871000Y-95423000I-150000J0D01*
G01*
X125221000Y-95423000D01*
G75*
G02*
X125071000Y-95273000I0J150000D01*
G01*
G37*
%TD.AperFunction*%
%TO.P,U1,9*%
%TO.N,/PWM_C*%
%TA.AperFunction,SMDPad,CuDef*%
G36*
G01*
X125071000Y-96543000D02*
X125071000Y-96243000D01*
G75*
G02*
X125221000Y-96093000I150000J0D01*
G01*
X126871000Y-96093000D01*
G75*
G02*
X127021000Y-96243000I0J-150000D01*
G01*
X127021000Y-96543000D01*
G75*
G02*
X126871000Y-96693000I-150000J0D01*
G01*
X125221000Y-96693000D01*
G75*
G02*
X125071000Y-96543000I0J150000D01*
G01*
G37*
%TD.AperFunction*%
%TO.P,U1,8*%
%TO.N,/PWM_C+G*%
%TA.AperFunction,SMDPad,CuDef*%
G36*
G01*
X125071000Y-97813000D02*
X125071000Y-97513000D01*
G75*
G02*
X125221000Y-97363000I150000J0D01*
G01*
X126871000Y-97363000D01*
G75*
G02*
X127021000Y-97513000I0J-150000D01*
G01*
X127021000Y-97813000D01*
G75*
G02*
X126871000Y-97963000I-150000J0D01*
G01*
X125221000Y-97963000D01*
G75*
G02*
X125071000Y-97813000I0J150000D01*
G01*
G37*
%TD.AperFunction*%
%TO.P,U1,7*%
%TO.N,GND*%
%TA.AperFunction,SMDPad,CuDef*%
G36*
G01*
X120121000Y-97813000D02*
X120121000Y-97513000D01*
G75*
G02*
X120271000Y-97363000I150000J0D01*
G01*
X121921000Y-97363000D01*
G75*
G02*
X122071000Y-97513000I0J-150000D01*
G01*
X122071000Y-97813000D01*
G75*
G02*
X121921000Y-97963000I-150000J0D01*
G01*
X120271000Y-97963000D01*
G75*
G02*
X120121000Y-97813000I0J150000D01*
G01*
G37*
%TD.AperFunction*%
%TO.P,U1,6*%
%TO.N,/PWM_B+F*%
%TA.AperFunction,SMDPad,CuDef*%
G36*
G01*
X120121000Y-96543000D02*
X120121000Y-96243000D01*
G75*
G02*
X120271000Y-96093000I150000J0D01*
G01*
X121921000Y-96093000D01*
G75*
G02*
X122071000Y-96243000I0J-150000D01*
G01*
X122071000Y-96543000D01*
G75*
G02*
X121921000Y-96693000I-150000J0D01*
G01*
X120271000Y-96693000D01*
G75*
G02*
X120121000Y-96543000I0J150000D01*
G01*
G37*
%TD.AperFunction*%
%TO.P,U1,5*%
%TO.N,/PWM_F*%
%TA.AperFunction,SMDPad,CuDef*%
G36*
G01*
X120121000Y-95273000D02*
X120121000Y-94973000D01*
G75*
G02*
X120271000Y-94823000I150000J0D01*
G01*
X121921000Y-94823000D01*
G75*
G02*
X122071000Y-94973000I0J-150000D01*
G01*
X122071000Y-95273000D01*
G75*
G02*
X121921000Y-95423000I-150000J0D01*
G01*
X120271000Y-95423000D01*
G75*
G02*
X120121000Y-95273000I0J150000D01*
G01*
G37*
%TD.AperFunction*%
%TO.P,U1,4*%
%TO.N,/PWM_B*%
%TA.AperFunction,SMDPad,CuDef*%
G36*
G01*
X120121000Y-94003000D02*
X120121000Y-93703000D01*
G75*
G02*
X120271000Y-93553000I150000J0D01*
G01*
X121921000Y-93553000D01*
G75*
G02*
X122071000Y-93703000I0J-150000D01*
G01*
X122071000Y-94003000D01*
G75*
G02*
X121921000Y-94153000I-150000J0D01*
G01*
X120271000Y-94153000D01*
G75*
G02*
X120121000Y-94003000I0J150000D01*
G01*
G37*
%TD.AperFunction*%
%TO.P,U1,3*%
%TO.N,/PWM_A+E*%
%TA.AperFunction,SMDPad,CuDef*%
G36*
G01*
X120121000Y-92733000D02*
X120121000Y-92433000D01*
G75*
G02*
X120271000Y-92283000I150000J0D01*
G01*
X121921000Y-92283000D01*
G75*
G02*
X122071000Y-92433000I0J-150000D01*
G01*
X122071000Y-92733000D01*
G75*
G02*
X121921000Y-92883000I-150000J0D01*
G01*
X120271000Y-92883000D01*
G75*
G02*
X120121000Y-92733000I0J150000D01*
G01*
G37*
%TD.AperFunction*%
%TO.P,U1,2*%
%TO.N,/PWM_E*%
%TA.AperFunction,SMDPad,CuDef*%
G36*
G01*
X120121000Y-91463000D02*
X120121000Y-91163000D01*
G75*
G02*
X120271000Y-91013000I150000J0D01*
G01*
X121921000Y-91013000D01*
G75*
G02*
X122071000Y-91163000I0J-150000D01*
G01*
X122071000Y-91463000D01*
G75*
G02*
X121921000Y-91613000I-150000J0D01*
G01*
X120271000Y-91613000D01*
G75*
G02*
X120121000Y-91463000I0J150000D01*
G01*
G37*
%TD.AperFunction*%
%TO.P,U1,1*%
%TO.N,/PWM_A*%
%TA.AperFunction,SMDPad,CuDef*%
G36*
G01*
X120121000Y-90193000D02*
X120121000Y-89893000D01*
G75*
G02*
X120271000Y-89743000I150000J0D01*
G01*
X121921000Y-89743000D01*
G75*
G02*
X122071000Y-89893000I0J-150000D01*
G01*
X122071000Y-90193000D01*
G75*
G02*
X121921000Y-90343000I-150000J0D01*
G01*
X120271000Y-90343000D01*
G75*
G02*
X120121000Y-90193000I0J150000D01*
G01*
G37*
%TD.AperFunction*%
%TD*%
%TO.P,C4,2*%
%TO.N,GND*%
%TA.AperFunction,SMDPad,CuDef*%
G36*
G01*
X106863000Y-88662500D02*
X106863000Y-89137500D01*
G75*
G02*
X106625500Y-89375000I-237500J0D01*
G01*
X106025500Y-89375000D01*
G75*
G02*
X105788000Y-89137500I0J237500D01*
G01*
X105788000Y-88662500D01*
G75*
G02*
X106025500Y-88425000I237500J0D01*
G01*
X106625500Y-88425000D01*
G75*
G02*
X106863000Y-88662500I0J-237500D01*
G01*
G37*
%TD.AperFunction*%
%TO.P,C4,1*%
%TO.N,+3V3*%
%TA.AperFunction,SMDPad,CuDef*%
G36*
G01*
X108588000Y-88662500D02*
X108588000Y-89137500D01*
G75*
G02*
X108350500Y-89375000I-237500J0D01*
G01*
X107750500Y-89375000D01*
G75*
G02*
X107513000Y-89137500I0J237500D01*
G01*
X107513000Y-88662500D01*
G75*
G02*
X107750500Y-88425000I237500J0D01*
G01*
X108350500Y-88425000D01*
G75*
G02*
X108588000Y-88662500I0J-237500D01*
G01*
G37*
%TD.AperFunction*%
%TD*%
%TO.P,C3,2*%
%TO.N,GND*%
%TA.AperFunction,SMDPad,CuDef*%
G36*
G01*
X113848000Y-88662500D02*
X113848000Y-89137500D01*
G75*
G02*
X113610500Y-89375000I-237500J0D01*
G01*
X113010500Y-89375000D01*
G75*
G02*
X112773000Y-89137500I0J237500D01*
G01*
X112773000Y-88662500D01*
G75*
G02*
X113010500Y-88425000I237500J0D01*
G01*
X113610500Y-88425000D01*
G75*
G02*
X113848000Y-88662500I0J-237500D01*
G01*
G37*
%TD.AperFunction*%
%TO.P,C3,1*%
%TO.N,+3V3*%
%TA.AperFunction,SMDPad,CuDef*%
G36*
G01*
X115573000Y-88662500D02*
X115573000Y-89137500D01*
G75*
G02*
X115335500Y-89375000I-237500J0D01*
G01*
X114735500Y-89375000D01*
G75*
G02*
X114498000Y-89137500I0J237500D01*
G01*
X114498000Y-88662500D01*
G75*
G02*
X114735500Y-88425000I237500J0D01*
G01*
X115335500Y-88425000D01*
G75*
G02*
X115573000Y-88662500I0J-237500D01*
G01*
G37*
%TD.AperFunction*%
%TD*%
%TO.P,C2,1*%
%TO.N,+3V3*%
%TA.AperFunction,SMDPad,CuDef*%
G36*
G01*
X116315500Y-96142000D02*
X115840500Y-96142000D01*
G75*
G02*
X115603000Y-95904500I0J237500D01*
G01*
X115603000Y-95304500D01*
G75*
G02*
X115840500Y-95067000I237500J0D01*
G01*
X116315500Y-95067000D01*
G75*
G02*
X116553000Y-95304500I0J-237500D01*
G01*
X116553000Y-95904500D01*
G75*
G02*
X116315500Y-96142000I-237500J0D01*
G01*
G37*
%TD.AperFunction*%
%TO.P,C2,2*%
%TO.N,GND*%
%TA.AperFunction,SMDPad,CuDef*%
G36*
G01*
X116315500Y-94417000D02*
X115840500Y-94417000D01*
G75*
G02*
X115603000Y-94179500I0J237500D01*
G01*
X115603000Y-93579500D01*
G75*
G02*
X115840500Y-93342000I237500J0D01*
G01*
X116315500Y-93342000D01*
G75*
G02*
X116553000Y-93579500I0J-237500D01*
G01*
X116553000Y-94179500D01*
G75*
G02*
X116315500Y-94417000I-237500J0D01*
G01*
G37*
%TD.AperFunction*%
%TD*%
%TO.P,C1,2*%
%TO.N,GND*%
%TA.AperFunction,SMDPad,CuDef*%
G36*
G01*
X123246000Y-87900500D02*
X123246000Y-88375500D01*
G75*
G02*
X123008500Y-88613000I-237500J0D01*
G01*
X122408500Y-88613000D01*
G75*
G02*
X122171000Y-88375500I0J237500D01*
G01*
X122171000Y-87900500D01*
G75*
G02*
X122408500Y-87663000I237500J0D01*
G01*
X123008500Y-87663000D01*
G75*
G02*
X123246000Y-87900500I0J-237500D01*
G01*
G37*
%TD.AperFunction*%
%TO.P,C1,1*%
%TO.N,+3V3*%
%TA.AperFunction,SMDPad,CuDef*%
G36*
G01*
X124971000Y-87900500D02*
X124971000Y-88375500D01*
G75*
G02*
X124733500Y-88613000I-237500J0D01*
G01*
X124133500Y-88613000D01*
G75*
G02*
X123896000Y-88375500I0J237500D01*
G01*
X123896000Y-87900500D01*
G75*
G02*
X124133500Y-87663000I237500J0D01*
G01*
X124733500Y-87663000D01*
G75*
G02*
X124971000Y-87900500I0J-237500D01*
G01*
G37*
%TD.AperFunction*%
%TD*%
%TO.P,R2,1*%
%TO.N,/CON_EXT*%
%TA.AperFunction,SMDPad,CuDef*%
G36*
G01*
X120393000Y-83168500D02*
X120393000Y-82693500D01*
G75*
G02*
X120630500Y-82456000I237500J0D01*
G01*
X121130500Y-82456000D01*
G75*
G02*
X121368000Y-82693500I0J-237500D01*
G01*
X121368000Y-83168500D01*
G75*
G02*
X121130500Y-83406000I-237500J0D01*
G01*
X120630500Y-83406000D01*
G75*
G02*
X120393000Y-83168500I0J237500D01*
G01*
G37*
%TD.AperFunction*%
%TO.P,R2,2*%
%TO.N,GND*%
%TA.AperFunction,SMDPad,CuDef*%
G36*
G01*
X122218000Y-83168500D02*
X122218000Y-82693500D01*
G75*
G02*
X122455500Y-82456000I237500J0D01*
G01*
X122955500Y-82456000D01*
G75*
G02*
X123193000Y-82693500I0J-237500D01*
G01*
X123193000Y-83168500D01*
G75*
G02*
X122955500Y-83406000I-237500J0D01*
G01*
X122455500Y-83406000D01*
G75*
G02*
X122218000Y-83168500I0J237500D01*
G01*
G37*
%TD.AperFunction*%
%TD*%
%TO.P,R1,2*%
%TO.N,Net-(R1-Pad2)*%
%TA.AperFunction,SMDPad,CuDef*%
G36*
G01*
X121368000Y-85233500D02*
X121368000Y-85708500D01*
G75*
G02*
X121130500Y-85946000I-237500J0D01*
G01*
X120630500Y-85946000D01*
G75*
G02*
X120393000Y-85708500I0J237500D01*
G01*
X120393000Y-85233500D01*
G75*
G02*
X120630500Y-84996000I237500J0D01*
G01*
X121130500Y-84996000D01*
G75*
G02*
X121368000Y-85233500I0J-237500D01*
G01*
G37*
%TD.AperFunction*%
%TO.P,R1,1*%
%TO.N,GND*%
%TA.AperFunction,SMDPad,CuDef*%
G36*
G01*
X123193000Y-85233500D02*
X123193000Y-85708500D01*
G75*
G02*
X122955500Y-85946000I-237500J0D01*
G01*
X122455500Y-85946000D01*
G75*
G02*
X122218000Y-85708500I0J237500D01*
G01*
X122218000Y-85233500D01*
G75*
G02*
X122455500Y-84996000I237500J0D01*
G01*
X122955500Y-84996000D01*
G75*
G02*
X123193000Y-85233500I0J-237500D01*
G01*
G37*
%TD.AperFunction*%
%TD*%
%TO.P,U2,16*%
%TO.N,+3V3*%
%TA.AperFunction,SMDPad,CuDef*%
G36*
G01*
X114023000Y-96242000D02*
X114323000Y-96242000D01*
G75*
G02*
X114473000Y-96392000I0J-150000D01*
G01*
X114473000Y-98042000D01*
G75*
G02*
X114323000Y-98192000I-150000J0D01*
G01*
X114023000Y-98192000D01*
G75*
G02*
X113873000Y-98042000I0J150000D01*
G01*
X113873000Y-96392000D01*
G75*
G02*
X114023000Y-96242000I150000J0D01*
G01*
G37*
%TD.AperFunction*%
%TO.P,U2,15*%
%TO.N,/PWM_STR_VEH*%
%TA.AperFunction,SMDPad,CuDef*%
G36*
G01*
X112753000Y-96242000D02*
X113053000Y-96242000D01*
G75*
G02*
X113203000Y-96392000I0J-150000D01*
G01*
X113203000Y-98042000D01*
G75*
G02*
X113053000Y-98192000I-150000J0D01*
G01*
X112753000Y-98192000D01*
G75*
G02*
X112603000Y-98042000I0J150000D01*
G01*
X112603000Y-96392000D01*
G75*
G02*
X112753000Y-96242000I150000J0D01*
G01*
G37*
%TD.AperFunction*%
%TO.P,U2,14*%
%TO.N,/PWM_THR_VEH*%
%TA.AperFunction,SMDPad,CuDef*%
G36*
G01*
X111483000Y-96242000D02*
X111783000Y-96242000D01*
G75*
G02*
X111933000Y-96392000I0J-150000D01*
G01*
X111933000Y-98042000D01*
G75*
G02*
X111783000Y-98192000I-150000J0D01*
G01*
X111483000Y-98192000D01*
G75*
G02*
X111333000Y-98042000I0J150000D01*
G01*
X111333000Y-96392000D01*
G75*
G02*
X111483000Y-96242000I150000J0D01*
G01*
G37*
%TD.AperFunction*%
%TO.P,U2,13*%
%TO.N,/PWM_THR*%
%TA.AperFunction,SMDPad,CuDef*%
G36*
G01*
X110213000Y-96242000D02*
X110513000Y-96242000D01*
G75*
G02*
X110663000Y-96392000I0J-150000D01*
G01*
X110663000Y-98042000D01*
G75*
G02*
X110513000Y-98192000I-150000J0D01*
G01*
X110213000Y-98192000D01*
G75*
G02*
X110063000Y-98042000I0J150000D01*
G01*
X110063000Y-96392000D01*
G75*
G02*
X110213000Y-96242000I150000J0D01*
G01*
G37*
%TD.AperFunction*%
%TO.P,U2,12*%
%TO.N,/PWM_A*%
%TA.AperFunction,SMDPad,CuDef*%
G36*
G01*
X108943000Y-96242000D02*
X109243000Y-96242000D01*
G75*
G02*
X109393000Y-96392000I0J-150000D01*
G01*
X109393000Y-98042000D01*
G75*
G02*
X109243000Y-98192000I-150000J0D01*
G01*
X108943000Y-98192000D01*
G75*
G02*
X108793000Y-98042000I0J150000D01*
G01*
X108793000Y-96392000D01*
G75*
G02*
X108943000Y-96242000I150000J0D01*
G01*
G37*
%TD.AperFunction*%
%TO.P,U2,11*%
%TO.N,/CON_EXT*%
%TA.AperFunction,SMDPad,CuDef*%
G36*
G01*
X107673000Y-96242000D02*
X107973000Y-96242000D01*
G75*
G02*
X108123000Y-96392000I0J-150000D01*
G01*
X108123000Y-98042000D01*
G75*
G02*
X107973000Y-98192000I-150000J0D01*
G01*
X107673000Y-98192000D01*
G75*
G02*
X107523000Y-98042000I0J150000D01*
G01*
X107523000Y-96392000D01*
G75*
G02*
X107673000Y-96242000I150000J0D01*
G01*
G37*
%TD.AperFunction*%
%TO.P,U2,10*%
%TA.AperFunction,SMDPad,CuDef*%
G36*
G01*
X106403000Y-96242000D02*
X106703000Y-96242000D01*
G75*
G02*
X106853000Y-96392000I0J-150000D01*
G01*
X106853000Y-98042000D01*
G75*
G02*
X106703000Y-98192000I-150000J0D01*
G01*
X106403000Y-98192000D01*
G75*
G02*
X106253000Y-98042000I0J150000D01*
G01*
X106253000Y-96392000D01*
G75*
G02*
X106403000Y-96242000I150000J0D01*
G01*
G37*
%TD.AperFunction*%
%TO.P,U2,9*%
%TA.AperFunction,SMDPad,CuDef*%
G36*
G01*
X105133000Y-96242000D02*
X105433000Y-96242000D01*
G75*
G02*
X105583000Y-96392000I0J-150000D01*
G01*
X105583000Y-98042000D01*
G75*
G02*
X105433000Y-98192000I-150000J0D01*
G01*
X105133000Y-98192000D01*
G75*
G02*
X104983000Y-98042000I0J150000D01*
G01*
X104983000Y-96392000D01*
G75*
G02*
X105133000Y-96242000I150000J0D01*
G01*
G37*
%TD.AperFunction*%
%TO.P,U2,8*%
%TO.N,GND*%
%TA.AperFunction,SMDPad,CuDef*%
G36*
G01*
X105133000Y-91292000D02*
X105433000Y-91292000D01*
G75*
G02*
X105583000Y-91442000I0J-150000D01*
G01*
X105583000Y-93092000D01*
G75*
G02*
X105433000Y-93242000I-150000J0D01*
G01*
X105133000Y-93242000D01*
G75*
G02*
X104983000Y-93092000I0J150000D01*
G01*
X104983000Y-91442000D01*
G75*
G02*
X105133000Y-91292000I150000J0D01*
G01*
G37*
%TD.AperFunction*%
%TO.P,U2,7*%
%TA.AperFunction,SMDPad,CuDef*%
G36*
G01*
X106403000Y-91292000D02*
X106703000Y-91292000D01*
G75*
G02*
X106853000Y-91442000I0J-150000D01*
G01*
X106853000Y-93092000D01*
G75*
G02*
X106703000Y-93242000I-150000J0D01*
G01*
X106403000Y-93242000D01*
G75*
G02*
X106253000Y-93092000I0J150000D01*
G01*
X106253000Y-91442000D01*
G75*
G02*
X106403000Y-91292000I150000J0D01*
G01*
G37*
%TD.AperFunction*%
%TO.P,U2,6*%
%TO.N,Net-(R1-Pad2)*%
%TA.AperFunction,SMDPad,CuDef*%
G36*
G01*
X107673000Y-91292000D02*
X107973000Y-91292000D01*
G75*
G02*
X108123000Y-91442000I0J-150000D01*
G01*
X108123000Y-93092000D01*
G75*
G02*
X107973000Y-93242000I-150000J0D01*
G01*
X107673000Y-93242000D01*
G75*
G02*
X107523000Y-93092000I0J150000D01*
G01*
X107523000Y-91442000D01*
G75*
G02*
X107673000Y-91292000I150000J0D01*
G01*
G37*
%TD.AperFunction*%
%TO.P,U2,5*%
%TO.N,/PWM_STR_INT_INV*%
%TA.AperFunction,SMDPad,CuDef*%
G36*
G01*
X108943000Y-91292000D02*
X109243000Y-91292000D01*
G75*
G02*
X109393000Y-91442000I0J-150000D01*
G01*
X109393000Y-93092000D01*
G75*
G02*
X109243000Y-93242000I-150000J0D01*
G01*
X108943000Y-93242000D01*
G75*
G02*
X108793000Y-93092000I0J150000D01*
G01*
X108793000Y-91442000D01*
G75*
G02*
X108943000Y-91292000I150000J0D01*
G01*
G37*
%TD.AperFunction*%
%TO.P,U2,4*%
%TO.N,/PWM_STR_VEH_INV*%
%TA.AperFunction,SMDPad,CuDef*%
G36*
G01*
X110213000Y-91292000D02*
X110513000Y-91292000D01*
G75*
G02*
X110663000Y-91442000I0J-150000D01*
G01*
X110663000Y-93092000D01*
G75*
G02*
X110513000Y-93242000I-150000J0D01*
G01*
X110213000Y-93242000D01*
G75*
G02*
X110063000Y-93092000I0J150000D01*
G01*
X110063000Y-91442000D01*
G75*
G02*
X110213000Y-91292000I150000J0D01*
G01*
G37*
%TD.AperFunction*%
%TO.P,U2,3*%
%TO.N,/PWM_STR_EXT_INV*%
%TA.AperFunction,SMDPad,CuDef*%
G36*
G01*
X111483000Y-91292000D02*
X111783000Y-91292000D01*
G75*
G02*
X111933000Y-91442000I0J-150000D01*
G01*
X111933000Y-93092000D01*
G75*
G02*
X111783000Y-93242000I-150000J0D01*
G01*
X111483000Y-93242000D01*
G75*
G02*
X111333000Y-93092000I0J150000D01*
G01*
X111333000Y-91442000D01*
G75*
G02*
X111483000Y-91292000I150000J0D01*
G01*
G37*
%TD.AperFunction*%
%TO.P,U2,2*%
%TO.N,/PWM_D*%
%TA.AperFunction,SMDPad,CuDef*%
G36*
G01*
X112753000Y-91292000D02*
X113053000Y-91292000D01*
G75*
G02*
X113203000Y-91442000I0J-150000D01*
G01*
X113203000Y-93092000D01*
G75*
G02*
X113053000Y-93242000I-150000J0D01*
G01*
X112753000Y-93242000D01*
G75*
G02*
X112603000Y-93092000I0J150000D01*
G01*
X112603000Y-91442000D01*
G75*
G02*
X112753000Y-91292000I150000J0D01*
G01*
G37*
%TD.AperFunction*%
%TO.P,U2,1*%
%TO.N,/PWM_STR*%
%TA.AperFunction,SMDPad,CuDef*%
G36*
G01*
X114023000Y-91292000D02*
X114323000Y-91292000D01*
G75*
G02*
X114473000Y-91442000I0J-150000D01*
G01*
X114473000Y-93092000D01*
G75*
G02*
X114323000Y-93242000I-150000J0D01*
G01*
X114023000Y-93242000D01*
G75*
G02*
X113873000Y-93092000I0J150000D01*
G01*
X113873000Y-91442000D01*
G75*
G02*
X114023000Y-91292000I150000J0D01*
G01*
G37*
%TD.AperFunction*%
%TD*%
D14*
%TO.N,+5V*%
X104101897Y-94983297D03*
D15*
%TO.N,GND*%
X110769204Y-90563888D03*
D16*
%TO.N,+3V3*%
X112301979Y-95741030D03*
X127482600Y-89319100D03*
X111874690Y-89630454D03*
X110502700Y-88900002D03*
%TO.N,/PWM_STR_EXT*%
X106565700Y-83134200D03*
%TO.N,/PWM_STR_EXT_INV*%
X113195100Y-90655021D03*
%TO.N,/PWM_STR_INT_INV*%
X115035804Y-93892437D03*
%TO.N,/CON_EXT*%
X119923709Y-82112258D03*
X107454700Y-94183200D03*
%TO.N,/PWM_D+H*%
X123774200Y-85242400D03*
%TO.N,/PWM_C+G*%
X124333000Y-96050100D03*
%TO.N,/PWM_B+F*%
X122491900Y-95756151D03*
%TO.N,/PWM_A+E*%
X119506984Y-93776800D03*
%TO.N,/PWM_E*%
X122466100Y-90678000D03*
%TO.N,/PWM_A*%
X128638300Y-99580700D03*
%TO.N,/PWM_D*%
X114325400Y-90678000D03*
%TO.N,/PWM_STR_VEH*%
X124650500Y-98247200D03*
X113095856Y-98864386D03*
%TO.N,/PWM_THR_VEH*%
X120167400Y-84582000D03*
X128384302Y-79870300D03*
%TO.N,/PWM_THR*%
X109974190Y-95495674D03*
X109890627Y-89639589D03*
%TO.N,/PWM_STR*%
X109232700Y-84734400D03*
X115430300Y-90932000D03*
%TO.N,/S.BUS_OUT*%
X119037100Y-83146900D03*
%TO.N,/COM_IN*%
X114568500Y-87843200D03*
%TO.N,/COM_IN_EXT*%
X113538000Y-82918302D03*
%TO.N,/S.BUS_OUT_EXT*%
X115468400Y-83299302D03*
%TO.N,+V_EXT*%
X115346200Y-84266200D03*
%TO.N,/PWM_THR_EXT*%
X113935796Y-84670896D03*
%TO.N,/CON_LOST*%
X123462400Y-83826600D03*
X128016000Y-86360000D03*
%TD*%
D17*
%TO.N,+5V*%
X120543000Y-78740000D02*
X120543000Y-78448000D01*
D18*
X119159890Y-77356890D02*
X106128112Y-77356890D01*
X120543000Y-78740000D02*
X119159890Y-77356890D01*
X106128112Y-77356890D02*
X104101897Y-79383105D01*
X104101897Y-79383105D02*
X104101897Y-94983297D01*
D19*
%TO.N,GND*%
X122707000Y-85472500D02*
X122706000Y-85471000D01*
X122708000Y-85474000D02*
X122707000Y-85472500D01*
X122707000Y-85472500D02*
X122705500Y-85471000D01*
X122708000Y-87929100D02*
X122708500Y-87929600D01*
X106693500Y-89267500D02*
X106693000Y-89267500D01*
X105283000Y-86295000D02*
X105283000Y-87857500D01*
X105283000Y-87857500D02*
X106326000Y-88900000D01*
X106326000Y-88900000D02*
X106693500Y-89267500D01*
X122706000Y-82875500D02*
X122705500Y-82876000D01*
X122705500Y-82876000D02*
X122705500Y-82931000D01*
X106553000Y-92267000D02*
X105283000Y-92267000D01*
X123151900Y-88373000D02*
X122708000Y-87929100D01*
X123151900Y-96582100D02*
X123151900Y-88373000D01*
X122071000Y-97663000D02*
X123151900Y-96582100D01*
X121096000Y-97663000D02*
X122071000Y-97663000D01*
X113310500Y-88900000D02*
X113284000Y-88900000D01*
X122705500Y-82931000D02*
X122705500Y-83007998D01*
X122705500Y-85471000D02*
X122705500Y-82931000D01*
X122705500Y-88135000D02*
X122708500Y-88138000D01*
X122705500Y-85471000D02*
X122705500Y-88135000D01*
X113233732Y-88900000D02*
X113310000Y-88900000D01*
X112268000Y-87934268D02*
X113233732Y-88900000D01*
X112268000Y-86295000D02*
X112268000Y-87934268D01*
X111912212Y-90563888D02*
X110769204Y-90563888D01*
X112483501Y-89992599D02*
X111912212Y-90563888D01*
X122708500Y-88138000D02*
X122695250Y-88138000D01*
X112655302Y-89995020D02*
X112652881Y-89992599D01*
X122695250Y-88138000D02*
X121793000Y-87235750D01*
X113965697Y-89995021D02*
X112655302Y-89995020D01*
X121793000Y-87235750D02*
X121793000Y-85192414D01*
X121793000Y-85192414D02*
X120522585Y-83921999D01*
X120522585Y-83921999D02*
X119850599Y-83921999D01*
X116638010Y-87134588D02*
X116638010Y-88593690D01*
X116638010Y-88593690D02*
X115239101Y-89992599D01*
X115239101Y-89992599D02*
X113968119Y-89992599D01*
X113968119Y-89992599D02*
X113965697Y-89995021D01*
X119850599Y-83921999D02*
X116638010Y-87134588D01*
X112652881Y-89992599D02*
X112483501Y-89992599D01*
X111313166Y-93502010D02*
X110923010Y-93111854D01*
X106553000Y-91292000D02*
X106813010Y-91031990D01*
X108458000Y-91347156D02*
X108458000Y-93186844D01*
X106813010Y-91031990D02*
X108142834Y-91031990D01*
X108458000Y-93186844D02*
X108789545Y-93518389D01*
X108789545Y-93518389D02*
X109550413Y-93518389D01*
X109550413Y-93518389D02*
X110579113Y-94547089D01*
X114713652Y-94547089D02*
X114719002Y-94552439D01*
X115379843Y-94552439D02*
X116052782Y-93879500D01*
X116078000Y-93879500D02*
X115429988Y-93231488D01*
X110923010Y-93111854D02*
X110923010Y-90717694D01*
X108142834Y-91031990D02*
X108458000Y-91347156D01*
X116052782Y-93879500D02*
X116078000Y-93879500D01*
X110579113Y-94547089D02*
X114713652Y-94547089D01*
X114719002Y-94552439D02*
X115379843Y-94552439D01*
X114492834Y-93502010D02*
X111313166Y-93502010D01*
X115429988Y-93231488D02*
X114763356Y-93231488D01*
X110923010Y-90717694D02*
X110769204Y-90563888D01*
X106553000Y-92267000D02*
X106553000Y-91292000D01*
X114763356Y-93231488D02*
X114492834Y-93502010D01*
X109867888Y-90563888D02*
X110769204Y-90563888D01*
X109308900Y-90004900D02*
X109867888Y-90563888D01*
X106325500Y-89375000D02*
X106955400Y-90004900D01*
X106325500Y-88900000D02*
X106325500Y-89375000D01*
X106955400Y-90004900D02*
X109308900Y-90004900D01*
X111628342Y-88900000D02*
X113310500Y-88900000D01*
X110769204Y-89759138D02*
X111628342Y-88900000D01*
X110769204Y-90563888D02*
X110769204Y-89759138D01*
%TO.N,+3V3*%
X115035500Y-88900000D02*
X115036000Y-88900000D01*
X109093000Y-86685600D02*
X109093000Y-87857500D01*
X109093000Y-86295000D02*
X109093000Y-86685600D01*
X109093000Y-87857500D02*
X108050300Y-88899800D01*
X108050300Y-88899800D02*
X108050000Y-88900000D01*
X108050500Y-88900000D02*
X108050300Y-88899800D01*
X116078000Y-86295000D02*
X116078000Y-87857500D01*
X116078000Y-87857500D02*
X115036000Y-88900000D01*
X125349000Y-90043000D02*
X126046000Y-90043000D01*
X124434000Y-89128000D02*
X125349000Y-90043000D01*
X124434000Y-88138000D02*
X124434000Y-89128000D01*
X124433500Y-88138000D02*
X124434000Y-88138000D01*
X116078000Y-95604500D02*
X116078000Y-95631000D01*
X124433500Y-88138000D02*
X126301500Y-88138000D01*
X126301500Y-88138000D02*
X127482600Y-89319100D01*
X114492000Y-97217000D02*
X114173000Y-97217000D01*
X116078000Y-95631000D02*
X114492000Y-97217000D01*
X112804424Y-89635010D02*
X112799868Y-89630454D01*
X113816576Y-89635010D02*
X112804424Y-89635010D01*
X114551586Y-88900000D02*
X113816576Y-89635010D01*
X112799868Y-89630454D02*
X111874690Y-89630454D01*
X115035500Y-88900000D02*
X114551586Y-88900000D01*
X112438509Y-95604500D02*
X112301979Y-95741030D01*
X116078000Y-95604500D02*
X112438509Y-95604500D01*
X108050500Y-88900000D02*
X110502698Y-88900000D01*
X110502698Y-88900000D02*
X110502700Y-88900002D01*
%TO.N,/PWM_STR_EXT*%
X106553000Y-83121500D02*
X106565700Y-83134200D01*
X106553000Y-81345000D02*
X106553000Y-83121500D01*
%TO.N,/PWM_STR_EXT_INV*%
X111633000Y-91567000D02*
X111633000Y-92267000D01*
X112544979Y-90655021D02*
X111633000Y-91567000D01*
X113195100Y-90655021D02*
X112544979Y-90655021D01*
%TO.N,/PWM_STR_INT_INV*%
X109093000Y-92551844D02*
X110433593Y-93892437D01*
X109093000Y-92267000D02*
X109093000Y-92551844D01*
X110433593Y-93892437D02*
X115035804Y-93892437D01*
%TO.N,/CON_EXT*%
X105283000Y-97217000D02*
X106553000Y-97217000D01*
X106553000Y-97217000D02*
X107823000Y-97217000D01*
X120880500Y-82931000D02*
X120742451Y-82931000D01*
X120742451Y-82931000D02*
X119923709Y-82112258D01*
X132339600Y-99319600D02*
X133350000Y-100330000D01*
X130385334Y-99319600D02*
X132339600Y-99319600D01*
X129089834Y-100615100D02*
X130385334Y-99319600D01*
X107823000Y-98044000D02*
X110394100Y-100615100D01*
X110394100Y-100615100D02*
X129089834Y-100615100D01*
X107823000Y-97217000D02*
X107823000Y-98044000D01*
X106553000Y-95084900D02*
X107454700Y-94183200D01*
X106553000Y-97217000D02*
X106553000Y-95084900D01*
%TO.N,/PWM_D+H*%
X123634700Y-85381900D02*
X123774200Y-85242400D01*
X123634700Y-92265700D02*
X123634700Y-85381900D01*
X125222000Y-93853000D02*
X123634700Y-92265700D01*
X126046000Y-93853000D02*
X125222000Y-93853000D01*
%TO.N,/PWM_C+G*%
X124333000Y-96647000D02*
X124333000Y-96050100D01*
X125349000Y-97663000D02*
X124333000Y-96647000D01*
X126046000Y-97663000D02*
X125349000Y-97663000D01*
%TO.N,/PWM_B+F*%
X121855051Y-96393000D02*
X122491900Y-95756151D01*
X121096000Y-96393000D02*
X121855051Y-96393000D01*
%TO.N,/PWM_A+E*%
X121096000Y-92583000D02*
X120700784Y-92583000D01*
X120700784Y-92583000D02*
X119506984Y-93776800D01*
D18*
%TO.N,+V_VEH*%
X130036999Y-80783001D02*
X130810000Y-80010000D01*
X125086001Y-80783001D02*
X130036999Y-80783001D01*
X123043000Y-78740000D02*
X125086001Y-80783001D01*
X136009701Y-81299999D02*
X132099999Y-81299999D01*
X136525000Y-80784700D02*
X136009701Y-81299999D01*
X132099999Y-81299999D02*
X130810000Y-80010000D01*
X136525000Y-80010000D02*
X136525000Y-80784700D01*
D19*
%TO.N,/PWM_F*%
X121096000Y-95123000D02*
X120396000Y-95123000D01*
X120396000Y-95123000D02*
X119845600Y-95673400D01*
X119845600Y-95673400D02*
X119845600Y-97967444D01*
X122090834Y-98223010D02*
X123545600Y-96768244D01*
X127601310Y-93861290D02*
X131153512Y-93861290D01*
X119845600Y-97967444D02*
X120101166Y-98223010D01*
X120101166Y-98223010D02*
X122090834Y-98223010D01*
X131820001Y-88640001D02*
X130810000Y-87630000D01*
X131820001Y-93194801D02*
X131820001Y-88640001D01*
X123545600Y-95872300D02*
X124929900Y-94488000D01*
X124929900Y-94488000D02*
X126974600Y-94488000D01*
X126974600Y-94488000D02*
X127601310Y-93861290D01*
X123545600Y-96768244D02*
X123545600Y-95872300D01*
X131153512Y-93861290D02*
X131820001Y-93194801D01*
%TO.N,/PWM_B*%
X120180400Y-98920300D02*
X129679700Y-98920300D01*
X119470800Y-94778200D02*
X119470800Y-98210700D01*
X119470800Y-98210700D02*
X120180400Y-98920300D01*
X120396000Y-93853000D02*
X119470800Y-94778200D01*
X129679700Y-98920300D02*
X130810000Y-97790000D01*
X121096000Y-93853000D02*
X120396000Y-93853000D01*
%TO.N,/PWM_E*%
X121096000Y-91313000D02*
X121793000Y-91313000D01*
X121831100Y-91313000D02*
X122466100Y-90678000D01*
X121096000Y-91313000D02*
X121831100Y-91313000D01*
%TO.N,/PWM_A*%
X128324600Y-99894400D02*
X128638300Y-99580700D01*
X111070400Y-99894400D02*
X128324600Y-99894400D01*
X109093000Y-97917000D02*
X111070400Y-99894400D01*
X109093000Y-97217000D02*
X109093000Y-97917000D01*
X128346200Y-99288600D02*
X128638300Y-99580700D01*
X120039570Y-99288600D02*
X128346200Y-99288600D01*
X118833900Y-98082930D02*
X120039570Y-99288600D01*
X120361800Y-90043000D02*
X118833900Y-91570900D01*
X118833900Y-91570900D02*
X118833900Y-98082930D01*
X121096000Y-90043000D02*
X120361800Y-90043000D01*
%TO.N,/PWM_H*%
X126746000Y-91313000D02*
X126046000Y-91313000D01*
X129024000Y-89035000D02*
X126746000Y-91313000D01*
X129024000Y-84336000D02*
X129024000Y-89035000D01*
X130810000Y-82550000D02*
X129024000Y-84336000D01*
%TO.N,/PWM_D*%
X126046000Y-92583000D02*
X126173000Y-92710000D01*
X126173000Y-92710000D02*
X129799700Y-92710000D01*
X130810000Y-92710000D02*
X129799700Y-92710000D01*
X114198400Y-90678000D02*
X114325400Y-90678000D01*
X112903000Y-91973400D02*
X114198400Y-90678000D01*
X112903000Y-92267000D02*
X112903000Y-91973400D01*
%TO.N,/PWM_G*%
X130810000Y-85090000D02*
X131826000Y-86106000D01*
X126899531Y-95123000D02*
X126046000Y-95123000D01*
X131318000Y-94221300D02*
X127801231Y-94221300D01*
X127801231Y-94221300D02*
X126899531Y-95123000D01*
X132181600Y-93357700D02*
X131318000Y-94221300D01*
X132181600Y-86461600D02*
X132181600Y-93357700D01*
X130810000Y-85090000D02*
X132181600Y-86461600D01*
%TO.N,/PWM_C*%
X127889000Y-95250000D02*
X130810000Y-95250000D01*
X126746000Y-96393000D02*
X127889000Y-95250000D01*
X126046000Y-96393000D02*
X126746000Y-96393000D01*
%TO.N,/PWM_STR_VEH*%
X112903000Y-98671530D02*
X113095856Y-98864386D01*
X112903000Y-97217000D02*
X112903000Y-98671530D01*
X134360001Y-93668001D02*
X134360001Y-88524999D01*
X134360001Y-88524999D02*
X136525000Y-86360000D01*
X134048002Y-93980000D02*
X134360001Y-93668001D01*
X132080000Y-95025198D02*
X133125198Y-93980000D01*
X131034802Y-96520000D02*
X132080000Y-95474802D01*
X130086100Y-96520000D02*
X131034802Y-96520000D01*
X128358900Y-98247200D02*
X130086100Y-96520000D01*
X133125198Y-93980000D02*
X134048002Y-93980000D01*
X132080000Y-95474802D02*
X132080000Y-95025198D01*
X124650500Y-98247200D02*
X128358900Y-98247200D01*
%TO.N,/PWM_THR_VEH*%
X136525000Y-77470000D02*
X135051800Y-78943200D01*
X135051800Y-78943200D02*
X129311402Y-78943200D01*
X129311402Y-78943200D02*
X128384302Y-79870300D01*
X111633000Y-95433207D02*
X111633000Y-97217000D01*
X114564531Y-94907100D02*
X112159107Y-94907100D01*
X115501727Y-94912450D02*
X114569881Y-94912450D01*
X115507077Y-94907100D02*
X115501727Y-94912450D01*
X115534314Y-94907100D02*
X115507077Y-94907100D01*
X112159107Y-94907100D02*
X111633000Y-95433207D01*
X117008979Y-94201621D02*
X116403610Y-94806990D01*
X115634424Y-94806990D02*
X115534314Y-94907100D01*
X116403610Y-94806990D02*
X115634424Y-94806990D01*
X114569881Y-94912450D02*
X114564531Y-94907100D01*
X120167400Y-84582000D02*
X117008979Y-87740421D01*
X117008979Y-87740421D02*
X117008979Y-94201621D01*
%TO.N,/PWM_STR_VEH_INV*%
X104722990Y-91123710D02*
X104722990Y-93261834D01*
X110554600Y-100254800D02*
X128941002Y-100254800D01*
X108532990Y-98233190D02*
X110554600Y-100254800D01*
X110363000Y-92267000D02*
X110363000Y-91568132D01*
X110363000Y-91568132D02*
X109466848Y-90671980D01*
X135013700Y-96761300D02*
X136525000Y-95250000D01*
X132902200Y-96761300D02*
X135013700Y-96761300D01*
X132080000Y-97583500D02*
X132902200Y-96761300D01*
X104984353Y-93523197D02*
X107747197Y-93523197D01*
X132080000Y-97973100D02*
X132080000Y-97583500D01*
X130393002Y-98802800D02*
X131250300Y-98802800D01*
X131250300Y-98802800D02*
X132080000Y-97973100D01*
X128941002Y-100254800D02*
X130393002Y-98802800D01*
X104722990Y-93261834D02*
X104984353Y-93523197D01*
X108532990Y-94308990D02*
X108532990Y-98233190D01*
X105174720Y-90671980D02*
X104722990Y-91123710D01*
X107747197Y-93523197D02*
X108532990Y-94308990D01*
X109466848Y-90671980D02*
X105174720Y-90671980D01*
%TO.N,/PWM_THR*%
X110363000Y-97217000D02*
X110363000Y-95884484D01*
X110363000Y-95884484D02*
X109974190Y-95495674D01*
X107549003Y-89639589D02*
X109890627Y-89639589D01*
X107252990Y-89343576D02*
X107549003Y-89639589D01*
X107252990Y-87565010D02*
X107252990Y-89343576D01*
X107823000Y-86995000D02*
X107252990Y-87565010D01*
X107823000Y-86295000D02*
X107823000Y-86995000D01*
%TO.N,/PWM_STR*%
X107138600Y-84734400D02*
X109232700Y-84734400D01*
X106553000Y-85320000D02*
X107138600Y-84734400D01*
X106553000Y-86295000D02*
X106553000Y-85320000D01*
X115430300Y-91009700D02*
X115430300Y-90932000D01*
X114173000Y-92267000D02*
X115430300Y-91009700D01*
%TO.N,/S.BUS_OUT*%
X114808000Y-86295000D02*
X114808000Y-85738400D01*
X114808000Y-85750400D02*
X114808000Y-86295000D01*
X117411500Y-83146900D02*
X114808000Y-85750400D01*
X119037100Y-83146900D02*
X117411500Y-83146900D01*
%TO.N,/COM_IN*%
X113538000Y-86295000D02*
X113538000Y-86812700D01*
X113538000Y-86812700D02*
X114568500Y-87843200D01*
%TO.N,GND_EXT*%
X113310000Y-78740000D02*
X113310500Y-78740000D01*
X112268000Y-79782500D02*
X113310000Y-78740000D01*
X112268000Y-81345000D02*
X112268000Y-79782500D01*
X105283000Y-81345000D02*
X105283000Y-79782500D01*
X105283000Y-79782500D02*
X106325700Y-78740200D01*
X106325500Y-78740000D02*
X106325700Y-78740200D01*
X132236810Y-78583190D02*
X133350000Y-77470000D01*
X128532289Y-79201611D02*
X129150710Y-78583190D01*
X125048611Y-79201611D02*
X128532289Y-79201611D01*
X123786999Y-77939999D02*
X125048611Y-79201611D01*
X129150710Y-78583190D02*
X132236810Y-78583190D01*
X122302999Y-77939999D02*
X123786999Y-77939999D01*
X121793000Y-78449998D02*
X122302999Y-77939999D01*
X121283001Y-79540001D02*
X121793000Y-79030002D01*
X121793000Y-79030002D02*
X121793000Y-78449998D01*
X119802999Y-79540001D02*
X121283001Y-79540001D01*
X118253698Y-77990700D02*
X119802999Y-79540001D01*
X114059800Y-77990700D02*
X118253698Y-77990700D01*
X113310500Y-78740000D02*
X114059800Y-77990700D01*
X112561200Y-77990700D02*
X113310500Y-78740000D01*
X107075300Y-77990700D02*
X112561200Y-77990700D01*
X106326000Y-78740000D02*
X107075300Y-77990700D01*
X106325700Y-78740200D02*
X106326000Y-78740000D01*
%TO.N,/COM_IN_EXT*%
X113538000Y-81345000D02*
X113538000Y-82918302D01*
%TO.N,/S.BUS_OUT_EXT*%
X114808000Y-82638902D02*
X115468400Y-83299302D01*
X114808000Y-81345000D02*
X114808000Y-82638902D01*
%TO.N,+V_EXT*%
X116078000Y-81345000D02*
X116078000Y-79782500D01*
X116078000Y-79782500D02*
X115036000Y-78740000D01*
X115036000Y-78740000D02*
X115035500Y-78740000D01*
X109093000Y-81345000D02*
X109093000Y-79782500D01*
X109093000Y-79782500D02*
X108050300Y-78740200D01*
X108050300Y-78740200D02*
X108050000Y-78740000D01*
X108050500Y-78740000D02*
X108050300Y-78740200D01*
X115035500Y-78740000D02*
X114247990Y-79527510D01*
X114795300Y-83160696D02*
X114795300Y-83715300D01*
X114247990Y-79527510D02*
X114247990Y-82613386D01*
X114795300Y-83715300D02*
X115346200Y-84266200D01*
X114247990Y-82613386D02*
X114795300Y-83160696D01*
X108762800Y-78740000D02*
X108050500Y-78740000D01*
X110744000Y-80721200D02*
X108762800Y-78740000D01*
X110744000Y-81407000D02*
X110744000Y-80721200D01*
X113052300Y-83715300D02*
X110744000Y-81407000D01*
X114795300Y-83715300D02*
X113052300Y-83715300D01*
%TO.N,/PWM_THR_EXT*%
X110451896Y-84670896D02*
X113935796Y-84670896D01*
X107823000Y-82042000D02*
X110451896Y-84670896D01*
X107823000Y-81345000D02*
X107823000Y-82042000D01*
%TO.N,/CON_LOST*%
X125482600Y-83826600D02*
X128016000Y-86360000D01*
X123462400Y-83826600D02*
X125482600Y-83826600D01*
%TO.N,Net-(R1-Pad2)*%
X117368989Y-89006011D02*
X120880500Y-85494500D01*
X117368989Y-95626411D02*
X117368989Y-89006011D01*
X113461700Y-99533700D02*
X117368989Y-95626411D01*
X120880500Y-85494500D02*
X120880500Y-85471000D01*
X109347000Y-93878400D02*
X110998000Y-95529400D01*
X112394000Y-99533700D02*
X113461700Y-99533700D01*
X110998000Y-95529400D02*
X110998000Y-98137700D01*
X110998000Y-98137700D02*
X112394000Y-99533700D01*
X107823000Y-93060975D02*
X107823000Y-92267000D01*
X108640424Y-93878399D02*
X107823000Y-93060975D01*
X109347000Y-93878400D02*
X108640424Y-93878399D01*
%TD*%
D20*
%TO.N,+V_VEH*%
X137605412Y-76941394D02*
X137685816Y-77038586D01*
X137745811Y-77149545D01*
X137783110Y-77270039D01*
X137798000Y-77411699D01*
X137798001Y-100382775D01*
X137784003Y-100525537D01*
X137747545Y-100646290D01*
X137688324Y-100757668D01*
X137608606Y-100855412D01*
X137565879Y-100890759D01*
X137568044Y-100887519D01*
X137656769Y-100673318D01*
X137702000Y-100445924D01*
X137702000Y-100214076D01*
X137656769Y-99986682D01*
X137568044Y-99772481D01*
X137439236Y-99579706D01*
X137275294Y-99415764D01*
X137082519Y-99286956D01*
X136868318Y-99198231D01*
X136640924Y-99153000D01*
X136409076Y-99153000D01*
X136181682Y-99198231D01*
X135967481Y-99286956D01*
X135774706Y-99415764D01*
X135610764Y-99579706D01*
X135481956Y-99772481D01*
X135393231Y-99986682D01*
X135348000Y-100214076D01*
X135348000Y-100445924D01*
X135393231Y-100673318D01*
X135481956Y-100887519D01*
X135589186Y-101048000D01*
X135027000Y-101048000D01*
X135027000Y-98106980D01*
X135335511Y-98106980D01*
X135359866Y-98187288D01*
X135459761Y-98406961D01*
X135600592Y-98602924D01*
X135776948Y-98767647D01*
X135982051Y-98894799D01*
X136208019Y-98979495D01*
X136398000Y-98919187D01*
X136398000Y-97917000D01*
X136652000Y-97917000D01*
X136652000Y-98919187D01*
X136841981Y-98979495D01*
X137067949Y-98894799D01*
X137273052Y-98767647D01*
X137449408Y-98602924D01*
X137590239Y-98406961D01*
X137690134Y-98187288D01*
X137714489Y-98106980D01*
X137653627Y-97917000D01*
X136652000Y-97917000D01*
X136398000Y-97917000D01*
X135396373Y-97917000D01*
X135335511Y-98106980D01*
X135027000Y-98106980D01*
X135027000Y-97473020D01*
X135335511Y-97473020D01*
X135396373Y-97663000D01*
X136398000Y-97663000D01*
X136398000Y-96660813D01*
X136652000Y-96660813D01*
X136652000Y-97663000D01*
X137653627Y-97663000D01*
X137714489Y-97473020D01*
X137690134Y-97392712D01*
X137590239Y-97173039D01*
X137449408Y-96977076D01*
X137273052Y-96812353D01*
X137067949Y-96685201D01*
X136841981Y-96600505D01*
X136652000Y-96660813D01*
X136398000Y-96660813D01*
X136208019Y-96600505D01*
X135982051Y-96685201D01*
X135776948Y-96812353D01*
X135600592Y-96977076D01*
X135459761Y-97173039D01*
X135359866Y-97392712D01*
X135335511Y-97473020D01*
X135027000Y-97473020D01*
X135027000Y-97189055D01*
X135034667Y-97188300D01*
X135034678Y-97188300D01*
X135097407Y-97182122D01*
X135177896Y-97157705D01*
X135252076Y-97118055D01*
X135317095Y-97064695D01*
X135330468Y-97048400D01*
X136050286Y-96328582D01*
X137275000Y-96328582D01*
X137339103Y-96322268D01*
X137400743Y-96303570D01*
X137457550Y-96273206D01*
X137507343Y-96232343D01*
X137548206Y-96182550D01*
X137578570Y-96125743D01*
X137597268Y-96064103D01*
X137603582Y-96000000D01*
X137603582Y-94500000D01*
X137597268Y-94435897D01*
X137578570Y-94374257D01*
X137548206Y-94317450D01*
X137507343Y-94267657D01*
X137457550Y-94226794D01*
X137400743Y-94196430D01*
X137339103Y-94177732D01*
X137275000Y-94171418D01*
X135775000Y-94171418D01*
X135710897Y-94177732D01*
X135649257Y-94196430D01*
X135592450Y-94226794D01*
X135542657Y-94267657D01*
X135501794Y-94317450D01*
X135471430Y-94374257D01*
X135452732Y-94435897D01*
X135446418Y-94500000D01*
X135446418Y-95724714D01*
X135027000Y-96144132D01*
X135027000Y-91324076D01*
X135348000Y-91324076D01*
X135348000Y-91555924D01*
X135393231Y-91783318D01*
X135481956Y-91997519D01*
X135610764Y-92190294D01*
X135774706Y-92354236D01*
X135967481Y-92483044D01*
X136181682Y-92571769D01*
X136409076Y-92617000D01*
X136640924Y-92617000D01*
X136868318Y-92571769D01*
X137082519Y-92483044D01*
X137275294Y-92354236D01*
X137439236Y-92190294D01*
X137568044Y-91997519D01*
X137656769Y-91783318D01*
X137702000Y-91555924D01*
X137702000Y-91324076D01*
X137656769Y-91096682D01*
X137568044Y-90882481D01*
X137439236Y-90689706D01*
X137275294Y-90525764D01*
X137082519Y-90396956D01*
X136868318Y-90308231D01*
X136640924Y-90263000D01*
X136409076Y-90263000D01*
X136181682Y-90308231D01*
X135967481Y-90396956D01*
X135774706Y-90525764D01*
X135610764Y-90689706D01*
X135481956Y-90882481D01*
X135393231Y-91096682D01*
X135348000Y-91324076D01*
X135027000Y-91324076D01*
X135027000Y-89216980D01*
X135335511Y-89216980D01*
X135359866Y-89297288D01*
X135459761Y-89516961D01*
X135600592Y-89712924D01*
X135776948Y-89877647D01*
X135982051Y-90004799D01*
X136208019Y-90089495D01*
X136398000Y-90029187D01*
X136398000Y-89027000D01*
X136652000Y-89027000D01*
X136652000Y-90029187D01*
X136841981Y-90089495D01*
X137067949Y-90004799D01*
X137273052Y-89877647D01*
X137449408Y-89712924D01*
X137590239Y-89516961D01*
X137690134Y-89297288D01*
X137714489Y-89216980D01*
X137653627Y-89027000D01*
X136652000Y-89027000D01*
X136398000Y-89027000D01*
X135396373Y-89027000D01*
X135335511Y-89216980D01*
X135027000Y-89216980D01*
X135027000Y-88583020D01*
X135335511Y-88583020D01*
X135396373Y-88773000D01*
X136398000Y-88773000D01*
X136398000Y-87770813D01*
X136652000Y-87770813D01*
X136652000Y-88773000D01*
X137653627Y-88773000D01*
X137714489Y-88583020D01*
X137690134Y-88502712D01*
X137590239Y-88283039D01*
X137449408Y-88087076D01*
X137273052Y-87922353D01*
X137067949Y-87795201D01*
X136841981Y-87710505D01*
X136652000Y-87770813D01*
X136398000Y-87770813D01*
X136208019Y-87710505D01*
X135982051Y-87795201D01*
X135776948Y-87922353D01*
X135600592Y-88087076D01*
X135459761Y-88283039D01*
X135359866Y-88502712D01*
X135335511Y-88583020D01*
X135027000Y-88583020D01*
X135027000Y-88461868D01*
X136050287Y-87438582D01*
X137275000Y-87438582D01*
X137339103Y-87432268D01*
X137400743Y-87413570D01*
X137457550Y-87383206D01*
X137507343Y-87342343D01*
X137548206Y-87292550D01*
X137578570Y-87235743D01*
X137597268Y-87174103D01*
X137603582Y-87110000D01*
X137603582Y-85610000D01*
X137597268Y-85545897D01*
X137578570Y-85484257D01*
X137548206Y-85427450D01*
X137507343Y-85377657D01*
X137457550Y-85336794D01*
X137400743Y-85306430D01*
X137339103Y-85287732D01*
X137275000Y-85281418D01*
X135775000Y-85281418D01*
X135710897Y-85287732D01*
X135649257Y-85306430D01*
X135592450Y-85336794D01*
X135542657Y-85377657D01*
X135501794Y-85427450D01*
X135471430Y-85484257D01*
X135452732Y-85545897D01*
X135446418Y-85610000D01*
X135446418Y-86834713D01*
X135027000Y-87254131D01*
X135027000Y-82434076D01*
X135348000Y-82434076D01*
X135348000Y-82665924D01*
X135393231Y-82893318D01*
X135481956Y-83107519D01*
X135610764Y-83300294D01*
X135774706Y-83464236D01*
X135967481Y-83593044D01*
X136181682Y-83681769D01*
X136409076Y-83727000D01*
X136640924Y-83727000D01*
X136868318Y-83681769D01*
X137082519Y-83593044D01*
X137275294Y-83464236D01*
X137439236Y-83300294D01*
X137568044Y-83107519D01*
X137656769Y-82893318D01*
X137702000Y-82665924D01*
X137702000Y-82434076D01*
X137656769Y-82206682D01*
X137568044Y-81992481D01*
X137439236Y-81799706D01*
X137275294Y-81635764D01*
X137082519Y-81506956D01*
X136868318Y-81418231D01*
X136640924Y-81373000D01*
X136409076Y-81373000D01*
X136181682Y-81418231D01*
X135967481Y-81506956D01*
X135774706Y-81635764D01*
X135610764Y-81799706D01*
X135481956Y-81992481D01*
X135393231Y-82206682D01*
X135348000Y-82434076D01*
X135027000Y-82434076D01*
X135027000Y-80326980D01*
X135335511Y-80326980D01*
X135359866Y-80407288D01*
X135459761Y-80626961D01*
X135600592Y-80822924D01*
X135776948Y-80987647D01*
X135982051Y-81114799D01*
X136208019Y-81199495D01*
X136398000Y-81139187D01*
X136398000Y-80137000D01*
X136652000Y-80137000D01*
X136652000Y-81139187D01*
X136841981Y-81199495D01*
X137067949Y-81114799D01*
X137273052Y-80987647D01*
X137449408Y-80822924D01*
X137590239Y-80626961D01*
X137690134Y-80407288D01*
X137714489Y-80326980D01*
X137653627Y-80137000D01*
X136652000Y-80137000D01*
X136398000Y-80137000D01*
X135396373Y-80137000D01*
X135335511Y-80326980D01*
X135027000Y-80326980D01*
X135027000Y-79693020D01*
X135335511Y-79693020D01*
X135396373Y-79883000D01*
X136398000Y-79883000D01*
X136398000Y-78880813D01*
X136652000Y-78880813D01*
X136652000Y-79883000D01*
X137653627Y-79883000D01*
X137714489Y-79693020D01*
X137690134Y-79612712D01*
X137590239Y-79393039D01*
X137449408Y-79197076D01*
X137273052Y-79032353D01*
X137067949Y-78905201D01*
X136841981Y-78820505D01*
X136652000Y-78880813D01*
X136398000Y-78880813D01*
X136208019Y-78820505D01*
X135982051Y-78905201D01*
X135776948Y-79032353D01*
X135600592Y-79197076D01*
X135459761Y-79393039D01*
X135359866Y-79612712D01*
X135335511Y-79693020D01*
X135027000Y-79693020D01*
X135027000Y-79370200D01*
X135030833Y-79370200D01*
X135051800Y-79372265D01*
X135072767Y-79370200D01*
X135072778Y-79370200D01*
X135135507Y-79364022D01*
X135215996Y-79339605D01*
X135290176Y-79299955D01*
X135355195Y-79246595D01*
X135368568Y-79230300D01*
X136050286Y-78548582D01*
X137275000Y-78548582D01*
X137339103Y-78542268D01*
X137400743Y-78523570D01*
X137457550Y-78493206D01*
X137507343Y-78452343D01*
X137548206Y-78402550D01*
X137578570Y-78345743D01*
X137597268Y-78284103D01*
X137603582Y-78220000D01*
X137603582Y-76939901D01*
X137605412Y-76941394D01*
%TA.AperFunction,Conductor*%
D21*
G36*
X137605412Y-76941394D02*
G01*
X137685816Y-77038586D01*
X137745811Y-77149545D01*
X137783110Y-77270039D01*
X137798000Y-77411699D01*
X137798001Y-100382775D01*
X137784003Y-100525537D01*
X137747545Y-100646290D01*
X137688324Y-100757668D01*
X137608606Y-100855412D01*
X137565879Y-100890759D01*
X137568044Y-100887519D01*
X137656769Y-100673318D01*
X137702000Y-100445924D01*
X137702000Y-100214076D01*
X137656769Y-99986682D01*
X137568044Y-99772481D01*
X137439236Y-99579706D01*
X137275294Y-99415764D01*
X137082519Y-99286956D01*
X136868318Y-99198231D01*
X136640924Y-99153000D01*
X136409076Y-99153000D01*
X136181682Y-99198231D01*
X135967481Y-99286956D01*
X135774706Y-99415764D01*
X135610764Y-99579706D01*
X135481956Y-99772481D01*
X135393231Y-99986682D01*
X135348000Y-100214076D01*
X135348000Y-100445924D01*
X135393231Y-100673318D01*
X135481956Y-100887519D01*
X135589186Y-101048000D01*
X135027000Y-101048000D01*
X135027000Y-98106980D01*
X135335511Y-98106980D01*
X135359866Y-98187288D01*
X135459761Y-98406961D01*
X135600592Y-98602924D01*
X135776948Y-98767647D01*
X135982051Y-98894799D01*
X136208019Y-98979495D01*
X136398000Y-98919187D01*
X136398000Y-97917000D01*
X136652000Y-97917000D01*
X136652000Y-98919187D01*
X136841981Y-98979495D01*
X137067949Y-98894799D01*
X137273052Y-98767647D01*
X137449408Y-98602924D01*
X137590239Y-98406961D01*
X137690134Y-98187288D01*
X137714489Y-98106980D01*
X137653627Y-97917000D01*
X136652000Y-97917000D01*
X136398000Y-97917000D01*
X135396373Y-97917000D01*
X135335511Y-98106980D01*
X135027000Y-98106980D01*
X135027000Y-97473020D01*
X135335511Y-97473020D01*
X135396373Y-97663000D01*
X136398000Y-97663000D01*
X136398000Y-96660813D01*
X136652000Y-96660813D01*
X136652000Y-97663000D01*
X137653627Y-97663000D01*
X137714489Y-97473020D01*
X137690134Y-97392712D01*
X137590239Y-97173039D01*
X137449408Y-96977076D01*
X137273052Y-96812353D01*
X137067949Y-96685201D01*
X136841981Y-96600505D01*
X136652000Y-96660813D01*
X136398000Y-96660813D01*
X136208019Y-96600505D01*
X135982051Y-96685201D01*
X135776948Y-96812353D01*
X135600592Y-96977076D01*
X135459761Y-97173039D01*
X135359866Y-97392712D01*
X135335511Y-97473020D01*
X135027000Y-97473020D01*
X135027000Y-97189055D01*
X135034667Y-97188300D01*
X135034678Y-97188300D01*
X135097407Y-97182122D01*
X135177896Y-97157705D01*
X135252076Y-97118055D01*
X135317095Y-97064695D01*
X135330468Y-97048400D01*
X136050286Y-96328582D01*
X137275000Y-96328582D01*
X137339103Y-96322268D01*
X137400743Y-96303570D01*
X137457550Y-96273206D01*
X137507343Y-96232343D01*
X137548206Y-96182550D01*
X137578570Y-96125743D01*
X137597268Y-96064103D01*
X137603582Y-96000000D01*
X137603582Y-94500000D01*
X137597268Y-94435897D01*
X137578570Y-94374257D01*
X137548206Y-94317450D01*
X137507343Y-94267657D01*
X137457550Y-94226794D01*
X137400743Y-94196430D01*
X137339103Y-94177732D01*
X137275000Y-94171418D01*
X135775000Y-94171418D01*
X135710897Y-94177732D01*
X135649257Y-94196430D01*
X135592450Y-94226794D01*
X135542657Y-94267657D01*
X135501794Y-94317450D01*
X135471430Y-94374257D01*
X135452732Y-94435897D01*
X135446418Y-94500000D01*
X135446418Y-95724714D01*
X135027000Y-96144132D01*
X135027000Y-91324076D01*
X135348000Y-91324076D01*
X135348000Y-91555924D01*
X135393231Y-91783318D01*
X135481956Y-91997519D01*
X135610764Y-92190294D01*
X135774706Y-92354236D01*
X135967481Y-92483044D01*
X136181682Y-92571769D01*
X136409076Y-92617000D01*
X136640924Y-92617000D01*
X136868318Y-92571769D01*
X137082519Y-92483044D01*
X137275294Y-92354236D01*
X137439236Y-92190294D01*
X137568044Y-91997519D01*
X137656769Y-91783318D01*
X137702000Y-91555924D01*
X137702000Y-91324076D01*
X137656769Y-91096682D01*
X137568044Y-90882481D01*
X137439236Y-90689706D01*
X137275294Y-90525764D01*
X137082519Y-90396956D01*
X136868318Y-90308231D01*
X136640924Y-90263000D01*
X136409076Y-90263000D01*
X136181682Y-90308231D01*
X135967481Y-90396956D01*
X135774706Y-90525764D01*
X135610764Y-90689706D01*
X135481956Y-90882481D01*
X135393231Y-91096682D01*
X135348000Y-91324076D01*
X135027000Y-91324076D01*
X135027000Y-89216980D01*
X135335511Y-89216980D01*
X135359866Y-89297288D01*
X135459761Y-89516961D01*
X135600592Y-89712924D01*
X135776948Y-89877647D01*
X135982051Y-90004799D01*
X136208019Y-90089495D01*
X136398000Y-90029187D01*
X136398000Y-89027000D01*
X136652000Y-89027000D01*
X136652000Y-90029187D01*
X136841981Y-90089495D01*
X137067949Y-90004799D01*
X137273052Y-89877647D01*
X137449408Y-89712924D01*
X137590239Y-89516961D01*
X137690134Y-89297288D01*
X137714489Y-89216980D01*
X137653627Y-89027000D01*
X136652000Y-89027000D01*
X136398000Y-89027000D01*
X135396373Y-89027000D01*
X135335511Y-89216980D01*
X135027000Y-89216980D01*
X135027000Y-88583020D01*
X135335511Y-88583020D01*
X135396373Y-88773000D01*
X136398000Y-88773000D01*
X136398000Y-87770813D01*
X136652000Y-87770813D01*
X136652000Y-88773000D01*
X137653627Y-88773000D01*
X137714489Y-88583020D01*
X137690134Y-88502712D01*
X137590239Y-88283039D01*
X137449408Y-88087076D01*
X137273052Y-87922353D01*
X137067949Y-87795201D01*
X136841981Y-87710505D01*
X136652000Y-87770813D01*
X136398000Y-87770813D01*
X136208019Y-87710505D01*
X135982051Y-87795201D01*
X135776948Y-87922353D01*
X135600592Y-88087076D01*
X135459761Y-88283039D01*
X135359866Y-88502712D01*
X135335511Y-88583020D01*
X135027000Y-88583020D01*
X135027000Y-88461868D01*
X136050287Y-87438582D01*
X137275000Y-87438582D01*
X137339103Y-87432268D01*
X137400743Y-87413570D01*
X137457550Y-87383206D01*
X137507343Y-87342343D01*
X137548206Y-87292550D01*
X137578570Y-87235743D01*
X137597268Y-87174103D01*
X137603582Y-87110000D01*
X137603582Y-85610000D01*
X137597268Y-85545897D01*
X137578570Y-85484257D01*
X137548206Y-85427450D01*
X137507343Y-85377657D01*
X137457550Y-85336794D01*
X137400743Y-85306430D01*
X137339103Y-85287732D01*
X137275000Y-85281418D01*
X135775000Y-85281418D01*
X135710897Y-85287732D01*
X135649257Y-85306430D01*
X135592450Y-85336794D01*
X135542657Y-85377657D01*
X135501794Y-85427450D01*
X135471430Y-85484257D01*
X135452732Y-85545897D01*
X135446418Y-85610000D01*
X135446418Y-86834713D01*
X135027000Y-87254131D01*
X135027000Y-82434076D01*
X135348000Y-82434076D01*
X135348000Y-82665924D01*
X135393231Y-82893318D01*
X135481956Y-83107519D01*
X135610764Y-83300294D01*
X135774706Y-83464236D01*
X135967481Y-83593044D01*
X136181682Y-83681769D01*
X136409076Y-83727000D01*
X136640924Y-83727000D01*
X136868318Y-83681769D01*
X137082519Y-83593044D01*
X137275294Y-83464236D01*
X137439236Y-83300294D01*
X137568044Y-83107519D01*
X137656769Y-82893318D01*
X137702000Y-82665924D01*
X137702000Y-82434076D01*
X137656769Y-82206682D01*
X137568044Y-81992481D01*
X137439236Y-81799706D01*
X137275294Y-81635764D01*
X137082519Y-81506956D01*
X136868318Y-81418231D01*
X136640924Y-81373000D01*
X136409076Y-81373000D01*
X136181682Y-81418231D01*
X135967481Y-81506956D01*
X135774706Y-81635764D01*
X135610764Y-81799706D01*
X135481956Y-81992481D01*
X135393231Y-82206682D01*
X135348000Y-82434076D01*
X135027000Y-82434076D01*
X135027000Y-80326980D01*
X135335511Y-80326980D01*
X135359866Y-80407288D01*
X135459761Y-80626961D01*
X135600592Y-80822924D01*
X135776948Y-80987647D01*
X135982051Y-81114799D01*
X136208019Y-81199495D01*
X136398000Y-81139187D01*
X136398000Y-80137000D01*
X136652000Y-80137000D01*
X136652000Y-81139187D01*
X136841981Y-81199495D01*
X137067949Y-81114799D01*
X137273052Y-80987647D01*
X137449408Y-80822924D01*
X137590239Y-80626961D01*
X137690134Y-80407288D01*
X137714489Y-80326980D01*
X137653627Y-80137000D01*
X136652000Y-80137000D01*
X136398000Y-80137000D01*
X135396373Y-80137000D01*
X135335511Y-80326980D01*
X135027000Y-80326980D01*
X135027000Y-79693020D01*
X135335511Y-79693020D01*
X135396373Y-79883000D01*
X136398000Y-79883000D01*
X136398000Y-78880813D01*
X136652000Y-78880813D01*
X136652000Y-79883000D01*
X137653627Y-79883000D01*
X137714489Y-79693020D01*
X137690134Y-79612712D01*
X137590239Y-79393039D01*
X137449408Y-79197076D01*
X137273052Y-79032353D01*
X137067949Y-78905201D01*
X136841981Y-78820505D01*
X136652000Y-78880813D01*
X136398000Y-78880813D01*
X136208019Y-78820505D01*
X135982051Y-78905201D01*
X135776948Y-79032353D01*
X135600592Y-79197076D01*
X135459761Y-79393039D01*
X135359866Y-79612712D01*
X135335511Y-79693020D01*
X135027000Y-79693020D01*
X135027000Y-79370200D01*
X135030833Y-79370200D01*
X135051800Y-79372265D01*
X135072767Y-79370200D01*
X135072778Y-79370200D01*
X135135507Y-79364022D01*
X135215996Y-79339605D01*
X135290176Y-79299955D01*
X135355195Y-79246595D01*
X135368568Y-79230300D01*
X136050286Y-78548582D01*
X137275000Y-78548582D01*
X137339103Y-78542268D01*
X137400743Y-78523570D01*
X137457550Y-78493206D01*
X137507343Y-78452343D01*
X137548206Y-78402550D01*
X137578570Y-78345743D01*
X137597268Y-78284103D01*
X137603582Y-78220000D01*
X137603582Y-76939901D01*
X137605412Y-76941394D01*
G37*
%TD.AperFunction*%
%TD*%
M02*
