M48
; DRILL file {KiCad (5.1.10)-1} date 10/05/21 19:45:32
; FORMAT={-:-/ absolute / inch / decimal}
; #@! TF.CreationDate,2021-10-05T19:45:32+09:00
; #@! TF.GenerationSoftware,Kicad,Pcbnew,(5.1.10)-1
FMAT,2
INCH
T1C0.0157
T2C0.0197
T3C0.0236
T4C0.0394
T5C0.0866
%
G90
G05
T1
X4.1955Y-3.273
X4.2305Y-3.708
X4.3005Y-3.336
X4.3264Y-3.5291
X4.3297Y-3.7597
X4.3505Y-3.5
X4.4045Y-3.5288
X4.4213Y-3.7693
X4.4526Y-3.8923
X4.4565Y-3.5691
X4.47Y-3.2645
X4.4857Y-3.3335
X4.501Y-3.57
X4.5106Y-3.4584
X4.529Y-3.6966
X4.5412Y-3.3176
X4.5445Y-3.58
X4.546Y-3.2795
X4.6865Y-3.2735
X4.705Y-3.692
X4.7214Y-3.2328
X4.731Y-3.33
X4.8215Y-3.57
X4.8225Y-3.7699
X4.8607Y-3.3003
X4.873Y-3.356
X4.895Y-3.7815
X4.9075Y-3.868
X5.019Y-3.5165
X5.04Y-3.4
X5.0545Y-3.1445
X5.0645Y-3.9205
T2
X4.361Y-3.5655
T3
X4.0985Y-3.7395
T4
X5.15Y-3.05
X5.15Y-3.15
X5.15Y-3.25
X5.15Y-3.35
X5.15Y-3.45
X5.15Y-3.55
X5.15Y-3.65
X5.15Y-3.75
X5.15Y-3.85
X5.15Y-3.95
X5.25Y-3.05
X5.25Y-3.15
X5.25Y-3.25
X5.25Y-3.35
X5.25Y-3.45
X5.25Y-3.55
X5.25Y-3.65
X5.25Y-3.75
X5.25Y-3.85
X5.25Y-3.95
X5.375Y-3.05
X5.375Y-3.15
X5.375Y-3.25
X5.375Y-3.4
X5.375Y-3.5
X5.375Y-3.6
X5.375Y-3.75
X5.375Y-3.85
X5.375Y-3.95
T5
X4.2185Y-3.9626
X5.0059Y-3.0374
T0
M30
