%TF.GenerationSoftware,KiCad,Pcbnew,(5.1.10)-1*%
%TF.CreationDate,2021-10-05T20:05:55+09:00*%
%TF.ProjectId,mr8-gender-changer,6d72382d-6765-46e6-9465-722d6368616e,1*%
%TF.SameCoordinates,Original*%
%TF.FileFunction,Copper,L1,Top*%
%TF.FilePolarity,Positive*%
%FSLAX46Y46*%
G04 Gerber Fmt 4.6, Leading zero omitted, Abs format (unit mm)*
G04 Created by KiCad (PCBNEW (5.1.10)-1) date 2021-10-05 20:05:55*
%MOMM*%
%LPD*%
G01*
G04 APERTURE LIST*
%TA.AperFunction,ComponentPad*%
%ADD10C,1.700000*%
%TD*%
%TA.AperFunction,ComponentPad*%
%ADD11O,1.700000X1.700000*%
%TD*%
%TA.AperFunction,ComponentPad*%
%ADD12R,1.700000X1.700000*%
%TD*%
%TA.AperFunction,Conductor*%
%ADD13C,0.300000*%
%TD*%
%TA.AperFunction,Conductor*%
%ADD14C,0.600000*%
%TD*%
G04 APERTURE END LIST*
D10*
%TO.P,J3,8*%
%TO.N,/PWM_H*%
X153670000Y-101870000D03*
%TO.P,J3,7*%
%TO.N,/PWM_G*%
X153670000Y-99330000D03*
%TO.P,J3,6*%
%TO.N,/PWM_F*%
X153670000Y-96790000D03*
%TO.P,J3,5*%
%TO.N,/PWM_E*%
X153670000Y-94250000D03*
%TO.P,J3,4*%
%TO.N,/PWM_D*%
X153670000Y-91710000D03*
%TO.P,J3,3*%
%TO.N,/PWM_C*%
X153670000Y-89170000D03*
%TO.P,J3,2*%
%TO.N,/PWM_B*%
X153670000Y-86630000D03*
%TO.P,J3,1*%
%TO.N,/PWM_A*%
X153670000Y-84090000D03*
%TD*%
D11*
%TO.P,J2,2*%
%TO.N,+V_VEH*%
X156210000Y-104410000D03*
D12*
%TO.P,J2,1*%
%TO.N,GND*%
X158750000Y-104410000D03*
%TD*%
%TO.P,R6,1*%
%TO.N,/PWM_H*%
%TA.AperFunction,SMDPad,CuDef*%
G36*
G01*
X156080000Y-102107500D02*
X156080000Y-101632500D01*
G75*
G02*
X156317500Y-101395000I237500J0D01*
G01*
X156817500Y-101395000D01*
G75*
G02*
X157055000Y-101632500I0J-237500D01*
G01*
X157055000Y-102107500D01*
G75*
G02*
X156817500Y-102345000I-237500J0D01*
G01*
X156317500Y-102345000D01*
G75*
G02*
X156080000Y-102107500I0J237500D01*
G01*
G37*
%TD.AperFunction*%
%TO.P,R6,2*%
%TO.N,GND*%
%TA.AperFunction,SMDPad,CuDef*%
G36*
G01*
X157905000Y-102107500D02*
X157905000Y-101632500D01*
G75*
G02*
X158142500Y-101395000I237500J0D01*
G01*
X158642500Y-101395000D01*
G75*
G02*
X158880000Y-101632500I0J-237500D01*
G01*
X158880000Y-102107500D01*
G75*
G02*
X158642500Y-102345000I-237500J0D01*
G01*
X158142500Y-102345000D01*
G75*
G02*
X157905000Y-102107500I0J237500D01*
G01*
G37*
%TD.AperFunction*%
%TD*%
%TO.P,R5,2*%
%TO.N,GND*%
%TA.AperFunction,SMDPad,CuDef*%
G36*
G01*
X157905000Y-99567500D02*
X157905000Y-99092500D01*
G75*
G02*
X158142500Y-98855000I237500J0D01*
G01*
X158642500Y-98855000D01*
G75*
G02*
X158880000Y-99092500I0J-237500D01*
G01*
X158880000Y-99567500D01*
G75*
G02*
X158642500Y-99805000I-237500J0D01*
G01*
X158142500Y-99805000D01*
G75*
G02*
X157905000Y-99567500I0J237500D01*
G01*
G37*
%TD.AperFunction*%
%TO.P,R5,1*%
%TO.N,/PWM_G*%
%TA.AperFunction,SMDPad,CuDef*%
G36*
G01*
X156080000Y-99567500D02*
X156080000Y-99092500D01*
G75*
G02*
X156317500Y-98855000I237500J0D01*
G01*
X156817500Y-98855000D01*
G75*
G02*
X157055000Y-99092500I0J-237500D01*
G01*
X157055000Y-99567500D01*
G75*
G02*
X156817500Y-99805000I-237500J0D01*
G01*
X156317500Y-99805000D01*
G75*
G02*
X156080000Y-99567500I0J237500D01*
G01*
G37*
%TD.AperFunction*%
%TD*%
%TO.P,R4,2*%
%TO.N,GND*%
%TA.AperFunction,SMDPad,CuDef*%
G36*
G01*
X157905000Y-97027500D02*
X157905000Y-96552500D01*
G75*
G02*
X158142500Y-96315000I237500J0D01*
G01*
X158642500Y-96315000D01*
G75*
G02*
X158880000Y-96552500I0J-237500D01*
G01*
X158880000Y-97027500D01*
G75*
G02*
X158642500Y-97265000I-237500J0D01*
G01*
X158142500Y-97265000D01*
G75*
G02*
X157905000Y-97027500I0J237500D01*
G01*
G37*
%TD.AperFunction*%
%TO.P,R4,1*%
%TO.N,/PWM_F*%
%TA.AperFunction,SMDPad,CuDef*%
G36*
G01*
X156080000Y-97027500D02*
X156080000Y-96552500D01*
G75*
G02*
X156317500Y-96315000I237500J0D01*
G01*
X156817500Y-96315000D01*
G75*
G02*
X157055000Y-96552500I0J-237500D01*
G01*
X157055000Y-97027500D01*
G75*
G02*
X156817500Y-97265000I-237500J0D01*
G01*
X156317500Y-97265000D01*
G75*
G02*
X156080000Y-97027500I0J237500D01*
G01*
G37*
%TD.AperFunction*%
%TD*%
%TO.P,R3,2*%
%TO.N,GND*%
%TA.AperFunction,SMDPad,CuDef*%
G36*
G01*
X157905000Y-94487500D02*
X157905000Y-94012500D01*
G75*
G02*
X158142500Y-93775000I237500J0D01*
G01*
X158642500Y-93775000D01*
G75*
G02*
X158880000Y-94012500I0J-237500D01*
G01*
X158880000Y-94487500D01*
G75*
G02*
X158642500Y-94725000I-237500J0D01*
G01*
X158142500Y-94725000D01*
G75*
G02*
X157905000Y-94487500I0J237500D01*
G01*
G37*
%TD.AperFunction*%
%TO.P,R3,1*%
%TO.N,/PWM_E*%
%TA.AperFunction,SMDPad,CuDef*%
G36*
G01*
X156080000Y-94487500D02*
X156080000Y-94012500D01*
G75*
G02*
X156317500Y-93775000I237500J0D01*
G01*
X156817500Y-93775000D01*
G75*
G02*
X157055000Y-94012500I0J-237500D01*
G01*
X157055000Y-94487500D01*
G75*
G02*
X156817500Y-94725000I-237500J0D01*
G01*
X156317500Y-94725000D01*
G75*
G02*
X156080000Y-94487500I0J237500D01*
G01*
G37*
%TD.AperFunction*%
%TD*%
%TO.P,R2,2*%
%TO.N,GND*%
%TA.AperFunction,SMDPad,CuDef*%
G36*
G01*
X157905000Y-89407500D02*
X157905000Y-88932500D01*
G75*
G02*
X158142500Y-88695000I237500J0D01*
G01*
X158642500Y-88695000D01*
G75*
G02*
X158880000Y-88932500I0J-237500D01*
G01*
X158880000Y-89407500D01*
G75*
G02*
X158642500Y-89645000I-237500J0D01*
G01*
X158142500Y-89645000D01*
G75*
G02*
X157905000Y-89407500I0J237500D01*
G01*
G37*
%TD.AperFunction*%
%TO.P,R2,1*%
%TO.N,/PWM_C*%
%TA.AperFunction,SMDPad,CuDef*%
G36*
G01*
X156080000Y-89407500D02*
X156080000Y-88932500D01*
G75*
G02*
X156317500Y-88695000I237500J0D01*
G01*
X156817500Y-88695000D01*
G75*
G02*
X157055000Y-88932500I0J-237500D01*
G01*
X157055000Y-89407500D01*
G75*
G02*
X156817500Y-89645000I-237500J0D01*
G01*
X156317500Y-89645000D01*
G75*
G02*
X156080000Y-89407500I0J237500D01*
G01*
G37*
%TD.AperFunction*%
%TD*%
%TO.P,R1,2*%
%TO.N,GND*%
%TA.AperFunction,SMDPad,CuDef*%
G36*
G01*
X157905000Y-86867500D02*
X157905000Y-86392500D01*
G75*
G02*
X158142500Y-86155000I237500J0D01*
G01*
X158642500Y-86155000D01*
G75*
G02*
X158880000Y-86392500I0J-237500D01*
G01*
X158880000Y-86867500D01*
G75*
G02*
X158642500Y-87105000I-237500J0D01*
G01*
X158142500Y-87105000D01*
G75*
G02*
X157905000Y-86867500I0J237500D01*
G01*
G37*
%TD.AperFunction*%
%TO.P,R1,1*%
%TO.N,/PWM_B*%
%TA.AperFunction,SMDPad,CuDef*%
G36*
G01*
X156080000Y-86867500D02*
X156080000Y-86392500D01*
G75*
G02*
X156317500Y-86155000I237500J0D01*
G01*
X156817500Y-86155000D01*
G75*
G02*
X157055000Y-86392500I0J-237500D01*
G01*
X157055000Y-86867500D01*
G75*
G02*
X156817500Y-87105000I-237500J0D01*
G01*
X156317500Y-87105000D01*
G75*
G02*
X156080000Y-86867500I0J237500D01*
G01*
G37*
%TD.AperFunction*%
%TD*%
D11*
%TO.P,J1,10*%
%TO.N,/PWM_A*%
X163830000Y-82820000D03*
%TO.P,J1,9*%
%TO.N,/PWM_B*%
X163830000Y-85360000D03*
%TO.P,J1,8*%
%TO.N,/PWM_C*%
X163830000Y-87900000D03*
%TO.P,J1,7*%
%TO.N,/PWM_D*%
X163830000Y-90440000D03*
%TO.P,J1,6*%
%TO.N,/PWM_E*%
X163830000Y-92980000D03*
%TO.P,J1,5*%
%TO.N,/PWM_F*%
X163830000Y-95520000D03*
%TO.P,J1,4*%
%TO.N,/PWM_G*%
X163830000Y-98060000D03*
%TO.P,J1,3*%
%TO.N,/PWM_H*%
X163830000Y-100600000D03*
%TO.P,J1,2*%
%TO.N,+V_VEH*%
X163830000Y-103140000D03*
D12*
%TO.P,J1,1*%
%TO.N,GND*%
X163830000Y-105680000D03*
%TD*%
D13*
%TO.N,/PWM_B*%
X153670000Y-86630000D02*
X156567500Y-86630000D01*
%TO.N,/PWM_C*%
X153670000Y-89170000D02*
X156567500Y-89170000D01*
%TO.N,/PWM_E*%
X153670000Y-94250000D02*
X156567500Y-94250000D01*
%TO.N,/PWM_F*%
X153670000Y-96790000D02*
X156567500Y-96790000D01*
%TO.N,/PWM_G*%
X153670000Y-99330000D02*
X156567500Y-99330000D01*
%TO.N,/PWM_H*%
X153670000Y-101870000D02*
X156567500Y-101870000D01*
D14*
%TO.N,GND*%
X158392500Y-104052500D02*
X158750000Y-104410000D01*
X158392500Y-101870000D02*
X158392500Y-104052500D01*
X158392500Y-101870000D02*
X158392500Y-99330000D01*
X158392500Y-99330000D02*
X158392500Y-96790000D01*
X158392500Y-96790000D02*
X158392500Y-94250000D01*
X158392500Y-94250000D02*
X158392500Y-89170000D01*
X158392500Y-89170000D02*
X158392500Y-86630000D01*
%TD*%
M02*
