%TF.GenerationSoftware,KiCad,Pcbnew,(5.1.10)-1*%
%TF.CreationDate,2021-10-05T20:05:55+09:00*%
%TF.ProjectId,mr8-gender-changer,6d72382d-6765-46e6-9465-722d6368616e,1*%
%TF.SameCoordinates,Original*%
%TF.FileFunction,Paste,Top*%
%TF.FilePolarity,Positive*%
%FSLAX46Y46*%
G04 Gerber Fmt 4.6, Leading zero omitted, Abs format (unit mm)*
G04 Created by KiCad (PCBNEW (5.1.10)-1) date 2021-10-05 20:05:55*
%MOMM*%
%LPD*%
G01*
G04 APERTURE LIST*
G04 APERTURE END LIST*
%TO.C,R6*%
G36*
G01*
X156080000Y-102107500D02*
X156080000Y-101632500D01*
G75*
G02*
X156317500Y-101395000I237500J0D01*
G01*
X156817500Y-101395000D01*
G75*
G02*
X157055000Y-101632500I0J-237500D01*
G01*
X157055000Y-102107500D01*
G75*
G02*
X156817500Y-102345000I-237500J0D01*
G01*
X156317500Y-102345000D01*
G75*
G02*
X156080000Y-102107500I0J237500D01*
G01*
G37*
G36*
G01*
X157905000Y-102107500D02*
X157905000Y-101632500D01*
G75*
G02*
X158142500Y-101395000I237500J0D01*
G01*
X158642500Y-101395000D01*
G75*
G02*
X158880000Y-101632500I0J-237500D01*
G01*
X158880000Y-102107500D01*
G75*
G02*
X158642500Y-102345000I-237500J0D01*
G01*
X158142500Y-102345000D01*
G75*
G02*
X157905000Y-102107500I0J237500D01*
G01*
G37*
%TD*%
%TO.C,R5*%
G36*
G01*
X157905000Y-99567500D02*
X157905000Y-99092500D01*
G75*
G02*
X158142500Y-98855000I237500J0D01*
G01*
X158642500Y-98855000D01*
G75*
G02*
X158880000Y-99092500I0J-237500D01*
G01*
X158880000Y-99567500D01*
G75*
G02*
X158642500Y-99805000I-237500J0D01*
G01*
X158142500Y-99805000D01*
G75*
G02*
X157905000Y-99567500I0J237500D01*
G01*
G37*
G36*
G01*
X156080000Y-99567500D02*
X156080000Y-99092500D01*
G75*
G02*
X156317500Y-98855000I237500J0D01*
G01*
X156817500Y-98855000D01*
G75*
G02*
X157055000Y-99092500I0J-237500D01*
G01*
X157055000Y-99567500D01*
G75*
G02*
X156817500Y-99805000I-237500J0D01*
G01*
X156317500Y-99805000D01*
G75*
G02*
X156080000Y-99567500I0J237500D01*
G01*
G37*
%TD*%
%TO.C,R4*%
G36*
G01*
X157905000Y-97027500D02*
X157905000Y-96552500D01*
G75*
G02*
X158142500Y-96315000I237500J0D01*
G01*
X158642500Y-96315000D01*
G75*
G02*
X158880000Y-96552500I0J-237500D01*
G01*
X158880000Y-97027500D01*
G75*
G02*
X158642500Y-97265000I-237500J0D01*
G01*
X158142500Y-97265000D01*
G75*
G02*
X157905000Y-97027500I0J237500D01*
G01*
G37*
G36*
G01*
X156080000Y-97027500D02*
X156080000Y-96552500D01*
G75*
G02*
X156317500Y-96315000I237500J0D01*
G01*
X156817500Y-96315000D01*
G75*
G02*
X157055000Y-96552500I0J-237500D01*
G01*
X157055000Y-97027500D01*
G75*
G02*
X156817500Y-97265000I-237500J0D01*
G01*
X156317500Y-97265000D01*
G75*
G02*
X156080000Y-97027500I0J237500D01*
G01*
G37*
%TD*%
%TO.C,R3*%
G36*
G01*
X157905000Y-94487500D02*
X157905000Y-94012500D01*
G75*
G02*
X158142500Y-93775000I237500J0D01*
G01*
X158642500Y-93775000D01*
G75*
G02*
X158880000Y-94012500I0J-237500D01*
G01*
X158880000Y-94487500D01*
G75*
G02*
X158642500Y-94725000I-237500J0D01*
G01*
X158142500Y-94725000D01*
G75*
G02*
X157905000Y-94487500I0J237500D01*
G01*
G37*
G36*
G01*
X156080000Y-94487500D02*
X156080000Y-94012500D01*
G75*
G02*
X156317500Y-93775000I237500J0D01*
G01*
X156817500Y-93775000D01*
G75*
G02*
X157055000Y-94012500I0J-237500D01*
G01*
X157055000Y-94487500D01*
G75*
G02*
X156817500Y-94725000I-237500J0D01*
G01*
X156317500Y-94725000D01*
G75*
G02*
X156080000Y-94487500I0J237500D01*
G01*
G37*
%TD*%
%TO.C,R2*%
G36*
G01*
X157905000Y-89407500D02*
X157905000Y-88932500D01*
G75*
G02*
X158142500Y-88695000I237500J0D01*
G01*
X158642500Y-88695000D01*
G75*
G02*
X158880000Y-88932500I0J-237500D01*
G01*
X158880000Y-89407500D01*
G75*
G02*
X158642500Y-89645000I-237500J0D01*
G01*
X158142500Y-89645000D01*
G75*
G02*
X157905000Y-89407500I0J237500D01*
G01*
G37*
G36*
G01*
X156080000Y-89407500D02*
X156080000Y-88932500D01*
G75*
G02*
X156317500Y-88695000I237500J0D01*
G01*
X156817500Y-88695000D01*
G75*
G02*
X157055000Y-88932500I0J-237500D01*
G01*
X157055000Y-89407500D01*
G75*
G02*
X156817500Y-89645000I-237500J0D01*
G01*
X156317500Y-89645000D01*
G75*
G02*
X156080000Y-89407500I0J237500D01*
G01*
G37*
%TD*%
%TO.C,R1*%
G36*
G01*
X157905000Y-86867500D02*
X157905000Y-86392500D01*
G75*
G02*
X158142500Y-86155000I237500J0D01*
G01*
X158642500Y-86155000D01*
G75*
G02*
X158880000Y-86392500I0J-237500D01*
G01*
X158880000Y-86867500D01*
G75*
G02*
X158642500Y-87105000I-237500J0D01*
G01*
X158142500Y-87105000D01*
G75*
G02*
X157905000Y-86867500I0J237500D01*
G01*
G37*
G36*
G01*
X156080000Y-86867500D02*
X156080000Y-86392500D01*
G75*
G02*
X156317500Y-86155000I237500J0D01*
G01*
X156817500Y-86155000D01*
G75*
G02*
X157055000Y-86392500I0J-237500D01*
G01*
X157055000Y-86867500D01*
G75*
G02*
X156817500Y-87105000I-237500J0D01*
G01*
X156317500Y-87105000D01*
G75*
G02*
X156080000Y-86867500I0J237500D01*
G01*
G37*
%TD*%
M02*
