%TF.GenerationSoftware,KiCad,Pcbnew,(5.1.10)-1*%
%TF.CreationDate,2021-10-05T20:05:55+09:00*%
%TF.ProjectId,mr8-gender-changer,6d72382d-6765-46e6-9465-722d6368616e,1*%
%TF.SameCoordinates,Original*%
%TF.FileFunction,Copper,L2,Bot*%
%TF.FilePolarity,Positive*%
%FSLAX46Y46*%
G04 Gerber Fmt 4.6, Leading zero omitted, Abs format (unit mm)*
G04 Created by KiCad (PCBNEW (5.1.10)-1) date 2021-10-05 20:05:55*
%MOMM*%
%LPD*%
G01*
G04 APERTURE LIST*
%TA.AperFunction,ComponentPad*%
%ADD10C,1.700000*%
%TD*%
%TA.AperFunction,ComponentPad*%
%ADD11O,1.700000X1.700000*%
%TD*%
%TA.AperFunction,ComponentPad*%
%ADD12R,1.700000X1.700000*%
%TD*%
%TA.AperFunction,Conductor*%
%ADD13C,0.300000*%
%TD*%
%TA.AperFunction,Conductor*%
%ADD14C,0.600000*%
%TD*%
G04 APERTURE END LIST*
D10*
%TO.P,J3,8*%
%TO.N,/PWM_H*%
X153670000Y-101870000D03*
%TO.P,J3,7*%
%TO.N,/PWM_G*%
X153670000Y-99330000D03*
%TO.P,J3,6*%
%TO.N,/PWM_F*%
X153670000Y-96790000D03*
%TO.P,J3,5*%
%TO.N,/PWM_E*%
X153670000Y-94250000D03*
%TO.P,J3,4*%
%TO.N,/PWM_D*%
X153670000Y-91710000D03*
%TO.P,J3,3*%
%TO.N,/PWM_C*%
X153670000Y-89170000D03*
%TO.P,J3,2*%
%TO.N,/PWM_B*%
X153670000Y-86630000D03*
%TO.P,J3,1*%
%TO.N,/PWM_A*%
X153670000Y-84090000D03*
%TD*%
D11*
%TO.P,J2,2*%
%TO.N,+V_VEH*%
X156210000Y-104410000D03*
D12*
%TO.P,J2,1*%
%TO.N,GND*%
X158750000Y-104410000D03*
%TD*%
D11*
%TO.P,J1,10*%
%TO.N,/PWM_A*%
X163830000Y-82820000D03*
%TO.P,J1,9*%
%TO.N,/PWM_B*%
X163830000Y-85360000D03*
%TO.P,J1,8*%
%TO.N,/PWM_C*%
X163830000Y-87900000D03*
%TO.P,J1,7*%
%TO.N,/PWM_D*%
X163830000Y-90440000D03*
%TO.P,J1,6*%
%TO.N,/PWM_E*%
X163830000Y-92980000D03*
%TO.P,J1,5*%
%TO.N,/PWM_F*%
X163830000Y-95520000D03*
%TO.P,J1,4*%
%TO.N,/PWM_G*%
X163830000Y-98060000D03*
%TO.P,J1,3*%
%TO.N,/PWM_H*%
X163830000Y-100600000D03*
%TO.P,J1,2*%
%TO.N,+V_VEH*%
X163830000Y-103140000D03*
D12*
%TO.P,J1,1*%
%TO.N,GND*%
X163830000Y-105680000D03*
%TD*%
D13*
%TO.N,/PWM_A*%
X154940000Y-82820000D02*
X153670000Y-84090000D01*
X163830000Y-82820000D02*
X154940000Y-82820000D01*
%TO.N,/PWM_B*%
X154940000Y-85360000D02*
X153670000Y-86630000D01*
X163830000Y-85360000D02*
X154940000Y-85360000D01*
%TO.N,/PWM_C*%
X154940000Y-87900000D02*
X153670000Y-89170000D01*
X163830000Y-87900000D02*
X154940000Y-87900000D01*
%TO.N,/PWM_D*%
X154940000Y-90440000D02*
X153670000Y-91710000D01*
X163830000Y-90440000D02*
X154940000Y-90440000D01*
%TO.N,/PWM_E*%
X154940000Y-92980000D02*
X153670000Y-94250000D01*
X163830000Y-92980000D02*
X154940000Y-92980000D01*
%TO.N,/PWM_F*%
X154940000Y-95520000D02*
X153670000Y-96790000D01*
X163830000Y-95520000D02*
X154940000Y-95520000D01*
%TO.N,/PWM_G*%
X154940000Y-98060000D02*
X153670000Y-99330000D01*
X163830000Y-98060000D02*
X154940000Y-98060000D01*
%TO.N,/PWM_H*%
X154940000Y-100600000D02*
X153670000Y-101870000D01*
X163830000Y-100600000D02*
X154940000Y-100600000D01*
D14*
%TO.N,+V_VEH*%
X163699999Y-103009999D02*
X163830000Y-103140000D01*
X157610001Y-103009999D02*
X163699999Y-103009999D01*
X156210000Y-104410000D02*
X157610001Y-103009999D01*
%TO.N,GND*%
X160020000Y-105680000D02*
X158750000Y-104410000D01*
X163830000Y-105680000D02*
X160020000Y-105680000D01*
%TD*%
M02*
