%TF.GenerationSoftware,KiCad,Pcbnew,(5.1.10)-1*%
%TF.CreationDate,2021-10-05T20:05:55+09:00*%
%TF.ProjectId,mr8-gender-changer,6d72382d-6765-46e6-9465-722d6368616e,1*%
%TF.SameCoordinates,Original*%
%TF.FileFunction,Legend,Bot*%
%TF.FilePolarity,Positive*%
%FSLAX46Y46*%
G04 Gerber Fmt 4.6, Leading zero omitted, Abs format (unit mm)*
G04 Created by KiCad (PCBNEW (5.1.10)-1) date 2021-10-05 20:05:55*
%MOMM*%
%LPD*%
G01*
G04 APERTURE LIST*
%ADD10C,0.150000*%
%ADD11C,0.120000*%
G04 APERTURE END LIST*
D10*
X158377380Y-82520595D02*
X157377380Y-82520595D01*
X157377380Y-82901547D01*
X157425000Y-82996785D01*
X157472619Y-83044404D01*
X157567857Y-83092023D01*
X157710714Y-83092023D01*
X157805952Y-83044404D01*
X157853571Y-82996785D01*
X157901190Y-82901547D01*
X157901190Y-82520595D01*
X158377380Y-83663452D02*
X158329761Y-83568214D01*
X158234523Y-83520595D01*
X157377380Y-83520595D01*
X158329761Y-84425357D02*
X158377380Y-84330119D01*
X158377380Y-84139642D01*
X158329761Y-84044404D01*
X158234523Y-83996785D01*
X157853571Y-83996785D01*
X157758333Y-84044404D01*
X157710714Y-84139642D01*
X157710714Y-84330119D01*
X157758333Y-84425357D01*
X157853571Y-84472976D01*
X157948809Y-84472976D01*
X158044047Y-83996785D01*
X158377380Y-85330119D02*
X157853571Y-85330119D01*
X157758333Y-85282500D01*
X157710714Y-85187261D01*
X157710714Y-84996785D01*
X157758333Y-84901547D01*
X158329761Y-85330119D02*
X158377380Y-85234880D01*
X158377380Y-84996785D01*
X158329761Y-84901547D01*
X158234523Y-84853928D01*
X158139285Y-84853928D01*
X158044047Y-84901547D01*
X157996428Y-84996785D01*
X157996428Y-85234880D01*
X157948809Y-85330119D01*
X158329761Y-85758690D02*
X158377380Y-85853928D01*
X158377380Y-86044404D01*
X158329761Y-86139642D01*
X158234523Y-86187261D01*
X158186904Y-86187261D01*
X158091666Y-86139642D01*
X158044047Y-86044404D01*
X158044047Y-85901547D01*
X157996428Y-85806309D01*
X157901190Y-85758690D01*
X157853571Y-85758690D01*
X157758333Y-85806309D01*
X157710714Y-85901547D01*
X157710714Y-86044404D01*
X157758333Y-86139642D01*
X158329761Y-86996785D02*
X158377380Y-86901547D01*
X158377380Y-86711071D01*
X158329761Y-86615833D01*
X158234523Y-86568214D01*
X157853571Y-86568214D01*
X157758333Y-86615833D01*
X157710714Y-86711071D01*
X157710714Y-86901547D01*
X157758333Y-86996785D01*
X157853571Y-87044404D01*
X157948809Y-87044404D01*
X158044047Y-86568214D01*
X157710714Y-88234880D02*
X158710714Y-88234880D01*
X157758333Y-88234880D02*
X157710714Y-88330119D01*
X157710714Y-88520595D01*
X157758333Y-88615833D01*
X157805952Y-88663452D01*
X157901190Y-88711071D01*
X158186904Y-88711071D01*
X158282142Y-88663452D01*
X158329761Y-88615833D01*
X158377380Y-88520595D01*
X158377380Y-88330119D01*
X158329761Y-88234880D01*
X157710714Y-89568214D02*
X158377380Y-89568214D01*
X157710714Y-89139642D02*
X158234523Y-89139642D01*
X158329761Y-89187261D01*
X158377380Y-89282500D01*
X158377380Y-89425357D01*
X158329761Y-89520595D01*
X158282142Y-89568214D01*
X158377380Y-90187261D02*
X158329761Y-90092023D01*
X158234523Y-90044404D01*
X157377380Y-90044404D01*
X158377380Y-90711071D02*
X158329761Y-90615833D01*
X158234523Y-90568214D01*
X157377380Y-90568214D01*
X158377380Y-92282500D02*
X157377380Y-92282500D01*
X158329761Y-92282500D02*
X158377380Y-92187261D01*
X158377380Y-91996785D01*
X158329761Y-91901547D01*
X158282142Y-91853928D01*
X158186904Y-91806309D01*
X157901190Y-91806309D01*
X157805952Y-91853928D01*
X157758333Y-91901547D01*
X157710714Y-91996785D01*
X157710714Y-92187261D01*
X157758333Y-92282500D01*
X158377380Y-92901547D02*
X158329761Y-92806309D01*
X158282142Y-92758690D01*
X158186904Y-92711071D01*
X157901190Y-92711071D01*
X157805952Y-92758690D01*
X157758333Y-92806309D01*
X157710714Y-92901547D01*
X157710714Y-93044404D01*
X157758333Y-93139642D01*
X157805952Y-93187261D01*
X157901190Y-93234880D01*
X158186904Y-93234880D01*
X158282142Y-93187261D01*
X158329761Y-93139642D01*
X158377380Y-93044404D01*
X158377380Y-92901547D01*
X157710714Y-93568214D02*
X158377380Y-93758690D01*
X157901190Y-93949166D01*
X158377380Y-94139642D01*
X157710714Y-94330119D01*
X157710714Y-94711071D02*
X158377380Y-94711071D01*
X157805952Y-94711071D02*
X157758333Y-94758690D01*
X157710714Y-94853928D01*
X157710714Y-94996785D01*
X157758333Y-95092023D01*
X157853571Y-95139642D01*
X158377380Y-95139642D01*
X159360714Y-82377738D02*
X159360714Y-82758690D01*
X159027380Y-82520595D02*
X159884523Y-82520595D01*
X159979761Y-82568214D01*
X160027380Y-82663452D01*
X160027380Y-82758690D01*
X160027380Y-83092023D02*
X159027380Y-83092023D01*
X160027380Y-83520595D02*
X159503571Y-83520595D01*
X159408333Y-83472976D01*
X159360714Y-83377738D01*
X159360714Y-83234880D01*
X159408333Y-83139642D01*
X159455952Y-83092023D01*
X159979761Y-84377738D02*
X160027380Y-84282500D01*
X160027380Y-84092023D01*
X159979761Y-83996785D01*
X159884523Y-83949166D01*
X159503571Y-83949166D01*
X159408333Y-83996785D01*
X159360714Y-84092023D01*
X159360714Y-84282500D01*
X159408333Y-84377738D01*
X159503571Y-84425357D01*
X159598809Y-84425357D01*
X159694047Y-83949166D01*
X159360714Y-86044404D02*
X160027380Y-86044404D01*
X159360714Y-85615833D02*
X159884523Y-85615833D01*
X159979761Y-85663452D01*
X160027380Y-85758690D01*
X160027380Y-85901547D01*
X159979761Y-85996785D01*
X159932142Y-86044404D01*
X159360714Y-86520595D02*
X160027380Y-86520595D01*
X159455952Y-86520595D02*
X159408333Y-86568214D01*
X159360714Y-86663452D01*
X159360714Y-86806309D01*
X159408333Y-86901547D01*
X159503571Y-86949166D01*
X160027380Y-86949166D01*
X159979761Y-87853928D02*
X160027380Y-87758690D01*
X160027380Y-87568214D01*
X159979761Y-87472976D01*
X159932142Y-87425357D01*
X159836904Y-87377738D01*
X159551190Y-87377738D01*
X159455952Y-87425357D01*
X159408333Y-87472976D01*
X159360714Y-87568214D01*
X159360714Y-87758690D01*
X159408333Y-87853928D01*
X160027380Y-88425357D02*
X159979761Y-88330119D01*
X159932142Y-88282500D01*
X159836904Y-88234880D01*
X159551190Y-88234880D01*
X159455952Y-88282500D01*
X159408333Y-88330119D01*
X159360714Y-88425357D01*
X159360714Y-88568214D01*
X159408333Y-88663452D01*
X159455952Y-88711071D01*
X159551190Y-88758690D01*
X159836904Y-88758690D01*
X159932142Y-88711071D01*
X159979761Y-88663452D01*
X160027380Y-88568214D01*
X160027380Y-88425357D01*
X159360714Y-89187261D02*
X160027380Y-89187261D01*
X159455952Y-89187261D02*
X159408333Y-89234880D01*
X159360714Y-89330119D01*
X159360714Y-89472976D01*
X159408333Y-89568214D01*
X159503571Y-89615833D01*
X160027380Y-89615833D01*
X159360714Y-90092023D02*
X160027380Y-90092023D01*
X159455952Y-90092023D02*
X159408333Y-90139642D01*
X159360714Y-90234880D01*
X159360714Y-90377738D01*
X159408333Y-90472976D01*
X159503571Y-90520595D01*
X160027380Y-90520595D01*
X159979761Y-91377738D02*
X160027380Y-91282500D01*
X160027380Y-91092023D01*
X159979761Y-90996785D01*
X159884523Y-90949166D01*
X159503571Y-90949166D01*
X159408333Y-90996785D01*
X159360714Y-91092023D01*
X159360714Y-91282500D01*
X159408333Y-91377738D01*
X159503571Y-91425357D01*
X159598809Y-91425357D01*
X159694047Y-90949166D01*
X159979761Y-92282500D02*
X160027380Y-92187261D01*
X160027380Y-91996785D01*
X159979761Y-91901547D01*
X159932142Y-91853928D01*
X159836904Y-91806309D01*
X159551190Y-91806309D01*
X159455952Y-91853928D01*
X159408333Y-91901547D01*
X159360714Y-91996785D01*
X159360714Y-92187261D01*
X159408333Y-92282500D01*
X159360714Y-92568214D02*
X159360714Y-92949166D01*
X159027380Y-92711071D02*
X159884523Y-92711071D01*
X159979761Y-92758690D01*
X160027380Y-92853928D01*
X160027380Y-92949166D01*
X159979761Y-93663452D02*
X160027380Y-93568214D01*
X160027380Y-93377738D01*
X159979761Y-93282500D01*
X159884523Y-93234880D01*
X159503571Y-93234880D01*
X159408333Y-93282500D01*
X159360714Y-93377738D01*
X159360714Y-93568214D01*
X159408333Y-93663452D01*
X159503571Y-93711071D01*
X159598809Y-93711071D01*
X159694047Y-93234880D01*
X160027380Y-94568214D02*
X159027380Y-94568214D01*
X159979761Y-94568214D02*
X160027380Y-94472976D01*
X160027380Y-94282500D01*
X159979761Y-94187261D01*
X159932142Y-94139642D01*
X159836904Y-94092023D01*
X159551190Y-94092023D01*
X159455952Y-94139642D01*
X159408333Y-94187261D01*
X159360714Y-94282500D01*
X159360714Y-94472976D01*
X159408333Y-94568214D01*
X159979761Y-96234880D02*
X160027380Y-96139642D01*
X160027380Y-95949166D01*
X159979761Y-95853928D01*
X159932142Y-95806309D01*
X159836904Y-95758690D01*
X159551190Y-95758690D01*
X159455952Y-95806309D01*
X159408333Y-95853928D01*
X159360714Y-95949166D01*
X159360714Y-96139642D01*
X159408333Y-96234880D01*
X160027380Y-96663452D02*
X159027380Y-96663452D01*
X160027380Y-97092023D02*
X159503571Y-97092023D01*
X159408333Y-97044404D01*
X159360714Y-96949166D01*
X159360714Y-96806309D01*
X159408333Y-96711071D01*
X159455952Y-96663452D01*
X160027380Y-97996785D02*
X159503571Y-97996785D01*
X159408333Y-97949166D01*
X159360714Y-97853928D01*
X159360714Y-97663452D01*
X159408333Y-97568214D01*
X159979761Y-97996785D02*
X160027380Y-97901547D01*
X160027380Y-97663452D01*
X159979761Y-97568214D01*
X159884523Y-97520595D01*
X159789285Y-97520595D01*
X159694047Y-97568214D01*
X159646428Y-97663452D01*
X159646428Y-97901547D01*
X159598809Y-97996785D01*
X159360714Y-98472976D02*
X160027380Y-98472976D01*
X159455952Y-98472976D02*
X159408333Y-98520595D01*
X159360714Y-98615833D01*
X159360714Y-98758690D01*
X159408333Y-98853928D01*
X159503571Y-98901547D01*
X160027380Y-98901547D01*
X159360714Y-99377738D02*
X160027380Y-99377738D01*
X159455952Y-99377738D02*
X159408333Y-99425357D01*
X159360714Y-99520595D01*
X159360714Y-99663452D01*
X159408333Y-99758690D01*
X159503571Y-99806309D01*
X160027380Y-99806309D01*
X159979761Y-100663452D02*
X160027380Y-100568214D01*
X160027380Y-100377738D01*
X159979761Y-100282500D01*
X159884523Y-100234880D01*
X159503571Y-100234880D01*
X159408333Y-100282500D01*
X159360714Y-100377738D01*
X159360714Y-100568214D01*
X159408333Y-100663452D01*
X159503571Y-100711071D01*
X159598809Y-100711071D01*
X159694047Y-100234880D01*
X160027380Y-101282500D02*
X159979761Y-101187261D01*
X159884523Y-101139642D01*
X159027380Y-101139642D01*
X159979761Y-101615833D02*
X160027380Y-101711071D01*
X160027380Y-101901547D01*
X159979761Y-101996785D01*
X159884523Y-102044404D01*
X159836904Y-102044404D01*
X159741666Y-101996785D01*
X159694047Y-101901547D01*
X159694047Y-101758690D01*
X159646428Y-101663452D01*
X159551190Y-101615833D01*
X159503571Y-101615833D01*
X159408333Y-101663452D01*
X159360714Y-101758690D01*
X159360714Y-101901547D01*
X159408333Y-101996785D01*
D11*
%TO.C,J3*%
X153670000Y-82760000D02*
X152340000Y-82760000D01*
X152340000Y-82760000D02*
X152340000Y-84090000D01*
X152340000Y-85360000D02*
X152340000Y-103200000D01*
X154686000Y-103200000D02*
X152340000Y-103200000D01*
X155000000Y-85360000D02*
X155000000Y-102886000D01*
X155000000Y-85360000D02*
X152340000Y-85360000D01*
X155000000Y-102886000D02*
X154686000Y-103200000D01*
%TO.C,J2*%
X160080000Y-104410000D02*
X160080000Y-103080000D01*
X160080000Y-103080000D02*
X158750000Y-103080000D01*
X157480000Y-103080000D02*
X155194000Y-103080000D01*
X154880000Y-105740000D02*
X154880000Y-103394000D01*
X157480000Y-105740000D02*
X154880000Y-105740000D01*
X157480000Y-105740000D02*
X157480000Y-103080000D01*
X155194000Y-103080000D02*
X154880000Y-103394000D01*
%TO.C,J1*%
X163830000Y-107010000D02*
X165160000Y-107010000D01*
X165160000Y-107010000D02*
X165160000Y-105680000D01*
X165160000Y-104410000D02*
X165160000Y-81490000D01*
X162500000Y-81490000D02*
X165160000Y-81490000D01*
X162500000Y-104410000D02*
X162500000Y-81490000D01*
X162500000Y-104410000D02*
X165160000Y-104410000D01*
%TO.C,J3*%
D10*
X153122380Y-81216666D02*
X153836666Y-81216666D01*
X153979523Y-81169047D01*
X154074761Y-81073809D01*
X154122380Y-80930952D01*
X154122380Y-80835714D01*
X153122380Y-81597619D02*
X153122380Y-82216666D01*
X153503333Y-81883333D01*
X153503333Y-82026190D01*
X153550952Y-82121428D01*
X153598571Y-82169047D01*
X153693809Y-82216666D01*
X153931904Y-82216666D01*
X154027142Y-82169047D01*
X154074761Y-82121428D01*
X154122380Y-82026190D01*
X154122380Y-81740476D01*
X154074761Y-81645238D01*
X154027142Y-81597619D01*
%TO.C,J2*%
X158202380Y-106362666D02*
X158916666Y-106362666D01*
X159059523Y-106315047D01*
X159154761Y-106219809D01*
X159202380Y-106076952D01*
X159202380Y-105981714D01*
X158297619Y-106791238D02*
X158250000Y-106838857D01*
X158202380Y-106934095D01*
X158202380Y-107172190D01*
X158250000Y-107267428D01*
X158297619Y-107315047D01*
X158392857Y-107362666D01*
X158488095Y-107362666D01*
X158630952Y-107315047D01*
X159202380Y-106743619D01*
X159202380Y-107362666D01*
%TO.C,J1*%
X160742380Y-105346666D02*
X161456666Y-105346666D01*
X161599523Y-105299047D01*
X161694761Y-105203809D01*
X161742380Y-105060952D01*
X161742380Y-104965714D01*
X161742380Y-106346666D02*
X161742380Y-105775238D01*
X161742380Y-106060952D02*
X160742380Y-106060952D01*
X160885238Y-105965714D01*
X160980476Y-105870476D01*
X161028095Y-105775238D01*
%TD*%
M02*
