M48
; DRILL file {KiCad (5.1.10)-1} date 10/05/21 20:05:57
; FORMAT={-:-/ absolute / inch / decimal}
; #@! TF.CreationDate,2021-10-05T20:05:57+09:00
; #@! TF.GenerationSoftware,Kicad,Pcbnew,(5.1.10)-1
FMAT,2
INCH
T1C0.0394
%
G90
G05
T1
X6.05Y-3.3106
X6.05Y-3.4106
X6.05Y-3.5106
X6.05Y-3.6106
X6.05Y-3.7106
X6.05Y-3.8106
X6.05Y-3.9106
X6.05Y-4.0106
X6.15Y-4.1106
X6.25Y-4.1106
X6.45Y-3.2606
X6.45Y-3.3606
X6.45Y-3.4606
X6.45Y-3.5606
X6.45Y-3.6606
X6.45Y-3.7606
X6.45Y-3.8606
X6.45Y-3.9606
X6.45Y-4.0606
X6.45Y-4.1606
T0
M30
