%TF.GenerationSoftware,KiCad,Pcbnew,(5.1.10)-1*%
%TF.CreationDate,2021-10-05T20:05:55+09:00*%
%TF.ProjectId,mr8-gender-changer,6d72382d-6765-46e6-9465-722d6368616e,1*%
%TF.SameCoordinates,Original*%
%TF.FileFunction,Legend,Top*%
%TF.FilePolarity,Positive*%
%FSLAX46Y46*%
G04 Gerber Fmt 4.6, Leading zero omitted, Abs format (unit mm)*
G04 Created by KiCad (PCBNEW (5.1.10)-1) date 2021-10-05 20:05:55*
%MOMM*%
%LPD*%
G01*
G04 APERTURE LIST*
%ADD10C,0.150000*%
%ADD11C,0.120000*%
G04 APERTURE END LIST*
D10*
X151691571Y-103856428D02*
X151655857Y-103963571D01*
X151620142Y-103999285D01*
X151548714Y-104035000D01*
X151441571Y-104035000D01*
X151370142Y-103999285D01*
X151334428Y-103963571D01*
X151298714Y-103892142D01*
X151298714Y-103606428D01*
X152048714Y-103606428D01*
X152048714Y-103856428D01*
X152013000Y-103927857D01*
X151977285Y-103963571D01*
X151905857Y-103999285D01*
X151834428Y-103999285D01*
X151763000Y-103963571D01*
X151727285Y-103927857D01*
X151691571Y-103856428D01*
X151691571Y-103606428D01*
X151513000Y-104320714D02*
X151513000Y-104677857D01*
X151298714Y-104249285D02*
X152048714Y-104499285D01*
X151298714Y-104749285D01*
X152048714Y-104892142D02*
X152048714Y-105320714D01*
X151298714Y-105106428D02*
X152048714Y-105106428D01*
X155786738Y-95843809D02*
X155710547Y-95881904D01*
X155558166Y-95881904D01*
X155481976Y-95843809D01*
X155443880Y-95767619D01*
X155443880Y-95462857D01*
X155481976Y-95386666D01*
X155558166Y-95348571D01*
X155710547Y-95348571D01*
X155786738Y-95386666D01*
X155824833Y-95462857D01*
X155824833Y-95539047D01*
X155443880Y-95615238D01*
X156091500Y-95881904D02*
X156510547Y-95348571D01*
X156091500Y-95348571D02*
X156510547Y-95881904D01*
X156701023Y-95348571D02*
X157005785Y-95348571D01*
X156815309Y-95081904D02*
X156815309Y-95767619D01*
X156853404Y-95843809D01*
X156929595Y-95881904D01*
X157005785Y-95881904D01*
X157272452Y-95805714D02*
X157310547Y-95843809D01*
X157272452Y-95881904D01*
X157234357Y-95843809D01*
X157272452Y-95805714D01*
X157272452Y-95881904D01*
X158224833Y-95043809D02*
X157539119Y-96072380D01*
X158491500Y-95881904D02*
X158491500Y-95348571D01*
X158491500Y-95424761D02*
X158529595Y-95386666D01*
X158605785Y-95348571D01*
X158720071Y-95348571D01*
X158796261Y-95386666D01*
X158834357Y-95462857D01*
X158834357Y-95881904D01*
X158834357Y-95462857D02*
X158872452Y-95386666D01*
X158948642Y-95348571D01*
X159062928Y-95348571D01*
X159139119Y-95386666D01*
X159177214Y-95462857D01*
X159177214Y-95881904D01*
X159558166Y-95881904D02*
X159558166Y-95348571D01*
X159558166Y-95500952D02*
X159596261Y-95424761D01*
X159634357Y-95386666D01*
X159710547Y-95348571D01*
X159786738Y-95348571D01*
X160167690Y-95424761D02*
X160091500Y-95386666D01*
X160053404Y-95348571D01*
X160015309Y-95272380D01*
X160015309Y-95234285D01*
X160053404Y-95158095D01*
X160091500Y-95120000D01*
X160167690Y-95081904D01*
X160320071Y-95081904D01*
X160396261Y-95120000D01*
X160434357Y-95158095D01*
X160472452Y-95234285D01*
X160472452Y-95272380D01*
X160434357Y-95348571D01*
X160396261Y-95386666D01*
X160320071Y-95424761D01*
X160167690Y-95424761D01*
X160091500Y-95462857D01*
X160053404Y-95500952D01*
X160015309Y-95577142D01*
X160015309Y-95729523D01*
X160053404Y-95805714D01*
X160091500Y-95843809D01*
X160167690Y-95881904D01*
X160320071Y-95881904D01*
X160396261Y-95843809D01*
X160434357Y-95805714D01*
X160472452Y-95729523D01*
X160472452Y-95577142D01*
X160434357Y-95500952D01*
X160396261Y-95462857D01*
X160320071Y-95424761D01*
X154686000Y-96790000D02*
X154940000Y-96536000D01*
X154686000Y-96790000D02*
X154940000Y-97044000D01*
X154686000Y-94250000D02*
X154940000Y-93996000D01*
X154686000Y-94250000D02*
X154940000Y-94504000D01*
X155194000Y-94250000D02*
X154686000Y-94250000D01*
X155194000Y-96790000D02*
X155194000Y-94250000D01*
X154686000Y-96790000D02*
X155194000Y-96790000D01*
X155316880Y-92033809D02*
X155431166Y-92071904D01*
X155621642Y-92071904D01*
X155697833Y-92033809D01*
X155735928Y-91995714D01*
X155774023Y-91919523D01*
X155774023Y-91843333D01*
X155735928Y-91767142D01*
X155697833Y-91729047D01*
X155621642Y-91690952D01*
X155469261Y-91652857D01*
X155393071Y-91614761D01*
X155354976Y-91576666D01*
X155316880Y-91500476D01*
X155316880Y-91424285D01*
X155354976Y-91348095D01*
X155393071Y-91310000D01*
X155469261Y-91271904D01*
X155659738Y-91271904D01*
X155774023Y-91310000D01*
X156002595Y-91538571D02*
X156307357Y-91538571D01*
X156116880Y-91271904D02*
X156116880Y-91957619D01*
X156154976Y-92033809D01*
X156231166Y-92071904D01*
X156307357Y-92071904D01*
X156878785Y-92033809D02*
X156802595Y-92071904D01*
X156650214Y-92071904D01*
X156574023Y-92033809D01*
X156535928Y-91957619D01*
X156535928Y-91652857D01*
X156574023Y-91576666D01*
X156650214Y-91538571D01*
X156802595Y-91538571D01*
X156878785Y-91576666D01*
X156916880Y-91652857D01*
X156916880Y-91729047D01*
X156535928Y-91805238D01*
X157564500Y-92033809D02*
X157488309Y-92071904D01*
X157335928Y-92071904D01*
X157259738Y-92033809D01*
X157221642Y-91957619D01*
X157221642Y-91652857D01*
X157259738Y-91576666D01*
X157335928Y-91538571D01*
X157488309Y-91538571D01*
X157564500Y-91576666D01*
X157602595Y-91652857D01*
X157602595Y-91729047D01*
X157221642Y-91805238D01*
X157945452Y-92071904D02*
X157945452Y-91538571D01*
X157945452Y-91690952D02*
X157983547Y-91614761D01*
X158021642Y-91576666D01*
X158097833Y-91538571D01*
X158174023Y-91538571D01*
X158440690Y-92071904D02*
X158440690Y-91538571D01*
X158440690Y-91271904D02*
X158402595Y-91310000D01*
X158440690Y-91348095D01*
X158478785Y-91310000D01*
X158440690Y-91271904D01*
X158440690Y-91348095D01*
X158821642Y-91538571D02*
X158821642Y-92071904D01*
X158821642Y-91614761D02*
X158859738Y-91576666D01*
X158935928Y-91538571D01*
X159050214Y-91538571D01*
X159126404Y-91576666D01*
X159164500Y-91652857D01*
X159164500Y-92071904D01*
X159888309Y-91538571D02*
X159888309Y-92186190D01*
X159850214Y-92262380D01*
X159812119Y-92300476D01*
X159735928Y-92338571D01*
X159621642Y-92338571D01*
X159545452Y-92300476D01*
X159888309Y-92033809D02*
X159812119Y-92071904D01*
X159659738Y-92071904D01*
X159583547Y-92033809D01*
X159545452Y-91995714D01*
X159507357Y-91919523D01*
X159507357Y-91690952D01*
X159545452Y-91614761D01*
X159583547Y-91576666D01*
X159659738Y-91538571D01*
X159812119Y-91538571D01*
X159888309Y-91576666D01*
X155240690Y-83651904D02*
X155697833Y-83651904D01*
X155469261Y-84451904D02*
X155469261Y-83651904D01*
X155964500Y-84451904D02*
X155964500Y-83651904D01*
X156307357Y-84451904D02*
X156307357Y-84032857D01*
X156269261Y-83956666D01*
X156193071Y-83918571D01*
X156078785Y-83918571D01*
X156002595Y-83956666D01*
X155964500Y-83994761D01*
X156688309Y-84451904D02*
X156688309Y-83918571D01*
X156688309Y-84070952D02*
X156726404Y-83994761D01*
X156764500Y-83956666D01*
X156840690Y-83918571D01*
X156916880Y-83918571D01*
X157297833Y-84451904D02*
X157221642Y-84413809D01*
X157183547Y-84375714D01*
X157145452Y-84299523D01*
X157145452Y-84070952D01*
X157183547Y-83994761D01*
X157221642Y-83956666D01*
X157297833Y-83918571D01*
X157412119Y-83918571D01*
X157488309Y-83956666D01*
X157526404Y-83994761D01*
X157564500Y-84070952D01*
X157564500Y-84299523D01*
X157526404Y-84375714D01*
X157488309Y-84413809D01*
X157412119Y-84451904D01*
X157297833Y-84451904D01*
X157793071Y-83918571D02*
X158097833Y-83918571D01*
X157907357Y-83651904D02*
X157907357Y-84337619D01*
X157945452Y-84413809D01*
X158021642Y-84451904D01*
X158097833Y-84451904D01*
X158250214Y-83918571D02*
X158554976Y-83918571D01*
X158364500Y-83651904D02*
X158364500Y-84337619D01*
X158402595Y-84413809D01*
X158478785Y-84451904D01*
X158554976Y-84451904D01*
X158935928Y-84451904D02*
X158859738Y-84413809D01*
X158821642Y-84337619D01*
X158821642Y-83651904D01*
X159545452Y-84413809D02*
X159469261Y-84451904D01*
X159316880Y-84451904D01*
X159240690Y-84413809D01*
X159202595Y-84337619D01*
X159202595Y-84032857D01*
X159240690Y-83956666D01*
X159316880Y-83918571D01*
X159469261Y-83918571D01*
X159545452Y-83956666D01*
X159583547Y-84032857D01*
X159583547Y-84109047D01*
X159202595Y-84185238D01*
X161218619Y-81940476D02*
X161694809Y-81607142D01*
X161218619Y-81369047D02*
X162218619Y-81369047D01*
X162218619Y-81750000D01*
X162171000Y-81845238D01*
X162123380Y-81892857D01*
X162028142Y-81940476D01*
X161885285Y-81940476D01*
X161790047Y-81892857D01*
X161742428Y-81845238D01*
X161694809Y-81750000D01*
X161694809Y-81369047D01*
X161313857Y-82940476D02*
X161266238Y-82892857D01*
X161218619Y-82750000D01*
X161218619Y-82654761D01*
X161266238Y-82511904D01*
X161361476Y-82416666D01*
X161456714Y-82369047D01*
X161647190Y-82321428D01*
X161790047Y-82321428D01*
X161980523Y-82369047D01*
X162075761Y-82416666D01*
X162171000Y-82511904D01*
X162218619Y-82654761D01*
X162218619Y-82750000D01*
X162171000Y-82892857D01*
X162123380Y-82940476D01*
X161218619Y-84130952D02*
X162218619Y-84130952D01*
X161885285Y-84607142D02*
X161218619Y-84607142D01*
X161790047Y-84607142D02*
X161837666Y-84654761D01*
X161885285Y-84750000D01*
X161885285Y-84892857D01*
X161837666Y-84988095D01*
X161742428Y-85035714D01*
X161218619Y-85035714D01*
X161885285Y-85369047D02*
X161885285Y-85750000D01*
X162218619Y-85511904D02*
X161361476Y-85511904D01*
X161266238Y-85559523D01*
X161218619Y-85654761D01*
X161218619Y-85750000D01*
X161266238Y-86464285D02*
X161218619Y-86369047D01*
X161218619Y-86178571D01*
X161266238Y-86083333D01*
X161361476Y-86035714D01*
X161742428Y-86035714D01*
X161837666Y-86083333D01*
X161885285Y-86178571D01*
X161885285Y-86369047D01*
X161837666Y-86464285D01*
X161742428Y-86511904D01*
X161647190Y-86511904D01*
X161551952Y-86035714D01*
X161218619Y-86940476D02*
X161885285Y-86940476D01*
X161694809Y-86940476D02*
X161790047Y-86988095D01*
X161837666Y-87035714D01*
X161885285Y-87130952D01*
X161885285Y-87226190D01*
X161885285Y-87416666D02*
X161885285Y-87797619D01*
X161218619Y-87559523D02*
X162075761Y-87559523D01*
X162171000Y-87607142D01*
X162218619Y-87702380D01*
X162218619Y-87797619D01*
X161218619Y-88559523D02*
X161742428Y-88559523D01*
X161837666Y-88511904D01*
X161885285Y-88416666D01*
X161885285Y-88226190D01*
X161837666Y-88130952D01*
X161266238Y-88559523D02*
X161218619Y-88464285D01*
X161218619Y-88226190D01*
X161266238Y-88130952D01*
X161361476Y-88083333D01*
X161456714Y-88083333D01*
X161551952Y-88130952D01*
X161599571Y-88226190D01*
X161599571Y-88464285D01*
X161647190Y-88559523D01*
X161266238Y-89464285D02*
X161218619Y-89369047D01*
X161218619Y-89178571D01*
X161266238Y-89083333D01*
X161313857Y-89035714D01*
X161409095Y-88988095D01*
X161694809Y-88988095D01*
X161790047Y-89035714D01*
X161837666Y-89083333D01*
X161885285Y-89178571D01*
X161885285Y-89369047D01*
X161837666Y-89464285D01*
X161266238Y-90273809D02*
X161218619Y-90178571D01*
X161218619Y-89988095D01*
X161266238Y-89892857D01*
X161361476Y-89845238D01*
X161742428Y-89845238D01*
X161837666Y-89892857D01*
X161885285Y-89988095D01*
X161885285Y-90178571D01*
X161837666Y-90273809D01*
X161742428Y-90321428D01*
X161647190Y-90321428D01*
X161551952Y-89845238D01*
X161885285Y-91369047D02*
X161885285Y-91750000D01*
X161218619Y-91511904D02*
X162075761Y-91511904D01*
X162171000Y-91559523D01*
X162218619Y-91654761D01*
X162218619Y-91750000D01*
X161218619Y-92226190D02*
X161266238Y-92130952D01*
X161313857Y-92083333D01*
X161409095Y-92035714D01*
X161694809Y-92035714D01*
X161790047Y-92083333D01*
X161837666Y-92130952D01*
X161885285Y-92226190D01*
X161885285Y-92369047D01*
X161837666Y-92464285D01*
X161790047Y-92511904D01*
X161694809Y-92559523D01*
X161409095Y-92559523D01*
X161313857Y-92511904D01*
X161266238Y-92464285D01*
X161218619Y-92369047D01*
X161218619Y-92226190D01*
X161218619Y-92988095D02*
X161885285Y-92988095D01*
X161694809Y-92988095D02*
X161790047Y-93035714D01*
X161837666Y-93083333D01*
X161885285Y-93178571D01*
X161885285Y-93273809D01*
X161218619Y-94369047D02*
X162218619Y-94369047D01*
X161504333Y-94702380D01*
X162218619Y-95035714D01*
X161218619Y-95035714D01*
X161218619Y-96083333D02*
X161694809Y-95750000D01*
X161218619Y-95511904D02*
X162218619Y-95511904D01*
X162218619Y-95892857D01*
X162171000Y-95988095D01*
X162123380Y-96035714D01*
X162028142Y-96083333D01*
X161885285Y-96083333D01*
X161790047Y-96035714D01*
X161742428Y-95988095D01*
X161694809Y-95892857D01*
X161694809Y-95511904D01*
X161599571Y-96511904D02*
X161599571Y-97273809D01*
X161790047Y-97892857D02*
X161837666Y-97797619D01*
X161885285Y-97750000D01*
X161980523Y-97702380D01*
X162028142Y-97702380D01*
X162123380Y-97750000D01*
X162171000Y-97797619D01*
X162218619Y-97892857D01*
X162218619Y-98083333D01*
X162171000Y-98178571D01*
X162123380Y-98226190D01*
X162028142Y-98273809D01*
X161980523Y-98273809D01*
X161885285Y-98226190D01*
X161837666Y-98178571D01*
X161790047Y-98083333D01*
X161790047Y-97892857D01*
X161742428Y-97797619D01*
X161694809Y-97750000D01*
X161599571Y-97702380D01*
X161409095Y-97702380D01*
X161313857Y-97750000D01*
X161266238Y-97797619D01*
X161218619Y-97892857D01*
X161218619Y-98083333D01*
X161266238Y-98178571D01*
X161313857Y-98226190D01*
X161409095Y-98273809D01*
X161599571Y-98273809D01*
X161694809Y-98226190D01*
X161742428Y-98178571D01*
X161790047Y-98083333D01*
X161694809Y-100845238D02*
X161742428Y-100797619D01*
X161790047Y-100702380D01*
X161790047Y-100607142D01*
X161742428Y-100511904D01*
X161694809Y-100464285D01*
X161599571Y-100416666D01*
X161504333Y-100416666D01*
X161409095Y-100464285D01*
X161361476Y-100511904D01*
X161313857Y-100607142D01*
X161313857Y-100702380D01*
X161361476Y-100797619D01*
X161409095Y-100845238D01*
X161790047Y-100845238D02*
X161409095Y-100845238D01*
X161361476Y-100892857D01*
X161361476Y-100940476D01*
X161409095Y-101035714D01*
X161504333Y-101083333D01*
X161742428Y-101083333D01*
X161885285Y-100988095D01*
X161980523Y-100845238D01*
X162028142Y-100654761D01*
X161980523Y-100464285D01*
X161885285Y-100321428D01*
X161742428Y-100226190D01*
X161551952Y-100178571D01*
X161361476Y-100226190D01*
X161218619Y-100321428D01*
X161123380Y-100464285D01*
X161075761Y-100654761D01*
X161123380Y-100845238D01*
X161218619Y-100988095D01*
X161885285Y-101369047D02*
X161885285Y-101750000D01*
X162218619Y-101511904D02*
X161361476Y-101511904D01*
X161266238Y-101559523D01*
X161218619Y-101654761D01*
X161218619Y-101750000D01*
X161218619Y-102226190D02*
X161266238Y-102130952D01*
X161313857Y-102083333D01*
X161409095Y-102035714D01*
X161694809Y-102035714D01*
X161790047Y-102083333D01*
X161837666Y-102130952D01*
X161885285Y-102226190D01*
X161885285Y-102369047D01*
X161837666Y-102464285D01*
X161790047Y-102511904D01*
X161694809Y-102559523D01*
X161409095Y-102559523D01*
X161313857Y-102511904D01*
X161266238Y-102464285D01*
X161218619Y-102369047D01*
X161218619Y-102226190D01*
X161218619Y-102988095D02*
X162218619Y-102988095D01*
X161599571Y-103083333D02*
X161218619Y-103369047D01*
X161885285Y-103369047D02*
X161504333Y-102988095D01*
X161885285Y-104226190D02*
X161218619Y-104226190D01*
X161885285Y-103797619D02*
X161361476Y-103797619D01*
X161266238Y-103845238D01*
X161218619Y-103940476D01*
X161218619Y-104083333D01*
X161266238Y-104178571D01*
X161313857Y-104226190D01*
X161218619Y-104702380D02*
X162218619Y-104702380D01*
X161218619Y-105130952D02*
X161742428Y-105130952D01*
X161837666Y-105083333D01*
X161885285Y-104988095D01*
X161885285Y-104845238D01*
X161837666Y-104750000D01*
X161790047Y-104702380D01*
X161218619Y-105607142D02*
X161885285Y-105607142D01*
X162218619Y-105607142D02*
X162171000Y-105559523D01*
X162123380Y-105607142D01*
X162171000Y-105654761D01*
X162218619Y-105607142D01*
X162123380Y-105607142D01*
X161218619Y-106083333D02*
X161885285Y-106083333D01*
X161694809Y-106083333D02*
X161790047Y-106130952D01*
X161837666Y-106178571D01*
X161885285Y-106273809D01*
X161885285Y-106369047D01*
X161218619Y-107130952D02*
X161742428Y-107130952D01*
X161837666Y-107083333D01*
X161885285Y-106988095D01*
X161885285Y-106797619D01*
X161837666Y-106702380D01*
X161266238Y-107130952D02*
X161218619Y-107035714D01*
X161218619Y-106797619D01*
X161266238Y-106702380D01*
X161361476Y-106654761D01*
X161456714Y-106654761D01*
X161551952Y-106702380D01*
X161599571Y-106797619D01*
X161599571Y-107035714D01*
X161647190Y-107130952D01*
D11*
X160020000Y-82820000D02*
X160020000Y-83455000D01*
X152400000Y-82820000D02*
X160020000Y-82820000D01*
X152400000Y-83455000D02*
X152400000Y-82820000D01*
X160020000Y-105680000D02*
X160020000Y-105045000D01*
X152400000Y-105680000D02*
X160020000Y-105680000D01*
X152400000Y-105045000D02*
X152400000Y-105680000D01*
D10*
X158678571Y-106315047D02*
X158678571Y-107076952D01*
X156138571Y-106315047D02*
X156138571Y-107076952D01*
X155757619Y-106696000D02*
X156519523Y-106696000D01*
X151312619Y-101584285D02*
X152312619Y-101584285D01*
X151836428Y-101584285D02*
X151836428Y-102155714D01*
X151312619Y-102155714D02*
X152312619Y-102155714D01*
X152265000Y-99591904D02*
X152312619Y-99496666D01*
X152312619Y-99353809D01*
X152265000Y-99210952D01*
X152169761Y-99115714D01*
X152074523Y-99068095D01*
X151884047Y-99020476D01*
X151741190Y-99020476D01*
X151550714Y-99068095D01*
X151455476Y-99115714D01*
X151360238Y-99210952D01*
X151312619Y-99353809D01*
X151312619Y-99449047D01*
X151360238Y-99591904D01*
X151407857Y-99639523D01*
X151741190Y-99639523D01*
X151741190Y-99449047D01*
X151836428Y-96932857D02*
X151836428Y-96599523D01*
X151312619Y-96599523D02*
X152312619Y-96599523D01*
X152312619Y-97075714D01*
X151836428Y-94035714D02*
X151836428Y-94369047D01*
X151312619Y-94511904D02*
X151312619Y-94035714D01*
X152312619Y-94035714D01*
X152312619Y-94511904D01*
X151312619Y-91448095D02*
X152312619Y-91448095D01*
X152312619Y-91686190D01*
X152265000Y-91829047D01*
X152169761Y-91924285D01*
X152074523Y-91971904D01*
X151884047Y-92019523D01*
X151741190Y-92019523D01*
X151550714Y-91971904D01*
X151455476Y-91924285D01*
X151360238Y-91829047D01*
X151312619Y-91686190D01*
X151312619Y-91448095D01*
X151407857Y-89479523D02*
X151360238Y-89431904D01*
X151312619Y-89289047D01*
X151312619Y-89193809D01*
X151360238Y-89050952D01*
X151455476Y-88955714D01*
X151550714Y-88908095D01*
X151741190Y-88860476D01*
X151884047Y-88860476D01*
X152074523Y-88908095D01*
X152169761Y-88955714D01*
X152265000Y-89050952D01*
X152312619Y-89193809D01*
X152312619Y-89289047D01*
X152265000Y-89431904D01*
X152217380Y-89479523D01*
X151836428Y-86701428D02*
X151788809Y-86844285D01*
X151741190Y-86891904D01*
X151645952Y-86939523D01*
X151503095Y-86939523D01*
X151407857Y-86891904D01*
X151360238Y-86844285D01*
X151312619Y-86749047D01*
X151312619Y-86368095D01*
X152312619Y-86368095D01*
X152312619Y-86701428D01*
X152265000Y-86796666D01*
X152217380Y-86844285D01*
X152122142Y-86891904D01*
X152026904Y-86891904D01*
X151931666Y-86844285D01*
X151884047Y-86796666D01*
X151836428Y-86701428D01*
X151836428Y-86368095D01*
X151598333Y-83851904D02*
X151598333Y-84328095D01*
X151312619Y-83756666D02*
X152312619Y-84090000D01*
X151312619Y-84423333D01*
D11*
%TO.C,R6*%
X157225276Y-101347500D02*
X157734724Y-101347500D01*
X157225276Y-102392500D02*
X157734724Y-102392500D01*
%TO.C,R5*%
X157225276Y-99852500D02*
X157734724Y-99852500D01*
X157225276Y-98807500D02*
X157734724Y-98807500D01*
%TO.C,R4*%
X157225276Y-97312500D02*
X157734724Y-97312500D01*
X157225276Y-96267500D02*
X157734724Y-96267500D01*
%TO.C,R3*%
X157225276Y-94772500D02*
X157734724Y-94772500D01*
X157225276Y-93727500D02*
X157734724Y-93727500D01*
%TO.C,R2*%
X157225276Y-89692500D02*
X157734724Y-89692500D01*
X157225276Y-88647500D02*
X157734724Y-88647500D01*
%TO.C,R1*%
X157225276Y-87152500D02*
X157734724Y-87152500D01*
X157225276Y-86107500D02*
X157734724Y-86107500D01*
%TO.C,R6*%
D10*
X159649333Y-102186666D02*
X159416000Y-101853333D01*
X159249333Y-102186666D02*
X159249333Y-101486666D01*
X159516000Y-101486666D01*
X159582666Y-101520000D01*
X159616000Y-101553333D01*
X159649333Y-101620000D01*
X159649333Y-101720000D01*
X159616000Y-101786666D01*
X159582666Y-101820000D01*
X159516000Y-101853333D01*
X159249333Y-101853333D01*
X160249333Y-101486666D02*
X160116000Y-101486666D01*
X160049333Y-101520000D01*
X160016000Y-101553333D01*
X159949333Y-101653333D01*
X159916000Y-101786666D01*
X159916000Y-102053333D01*
X159949333Y-102120000D01*
X159982666Y-102153333D01*
X160049333Y-102186666D01*
X160182666Y-102186666D01*
X160249333Y-102153333D01*
X160282666Y-102120000D01*
X160316000Y-102053333D01*
X160316000Y-101886666D01*
X160282666Y-101820000D01*
X160249333Y-101786666D01*
X160182666Y-101753333D01*
X160049333Y-101753333D01*
X159982666Y-101786666D01*
X159949333Y-101820000D01*
X159916000Y-101886666D01*
%TO.C,R5*%
X159649333Y-99646666D02*
X159416000Y-99313333D01*
X159249333Y-99646666D02*
X159249333Y-98946666D01*
X159516000Y-98946666D01*
X159582666Y-98980000D01*
X159616000Y-99013333D01*
X159649333Y-99080000D01*
X159649333Y-99180000D01*
X159616000Y-99246666D01*
X159582666Y-99280000D01*
X159516000Y-99313333D01*
X159249333Y-99313333D01*
X160282666Y-98946666D02*
X159949333Y-98946666D01*
X159916000Y-99280000D01*
X159949333Y-99246666D01*
X160016000Y-99213333D01*
X160182666Y-99213333D01*
X160249333Y-99246666D01*
X160282666Y-99280000D01*
X160316000Y-99346666D01*
X160316000Y-99513333D01*
X160282666Y-99580000D01*
X160249333Y-99613333D01*
X160182666Y-99646666D01*
X160016000Y-99646666D01*
X159949333Y-99613333D01*
X159916000Y-99580000D01*
%TO.C,R4*%
X159649333Y-97106666D02*
X159416000Y-96773333D01*
X159249333Y-97106666D02*
X159249333Y-96406666D01*
X159516000Y-96406666D01*
X159582666Y-96440000D01*
X159616000Y-96473333D01*
X159649333Y-96540000D01*
X159649333Y-96640000D01*
X159616000Y-96706666D01*
X159582666Y-96740000D01*
X159516000Y-96773333D01*
X159249333Y-96773333D01*
X160249333Y-96640000D02*
X160249333Y-97106666D01*
X160082666Y-96373333D02*
X159916000Y-96873333D01*
X160349333Y-96873333D01*
%TO.C,R3*%
X159649333Y-94566666D02*
X159416000Y-94233333D01*
X159249333Y-94566666D02*
X159249333Y-93866666D01*
X159516000Y-93866666D01*
X159582666Y-93900000D01*
X159616000Y-93933333D01*
X159649333Y-94000000D01*
X159649333Y-94100000D01*
X159616000Y-94166666D01*
X159582666Y-94200000D01*
X159516000Y-94233333D01*
X159249333Y-94233333D01*
X159882666Y-93866666D02*
X160316000Y-93866666D01*
X160082666Y-94133333D01*
X160182666Y-94133333D01*
X160249333Y-94166666D01*
X160282666Y-94200000D01*
X160316000Y-94266666D01*
X160316000Y-94433333D01*
X160282666Y-94500000D01*
X160249333Y-94533333D01*
X160182666Y-94566666D01*
X159982666Y-94566666D01*
X159916000Y-94533333D01*
X159882666Y-94500000D01*
%TO.C,R2*%
X159632666Y-89486666D02*
X159366000Y-89153333D01*
X159175523Y-89486666D02*
X159175523Y-88786666D01*
X159480285Y-88786666D01*
X159556476Y-88820000D01*
X159594571Y-88853333D01*
X159632666Y-88920000D01*
X159632666Y-89020000D01*
X159594571Y-89086666D01*
X159556476Y-89120000D01*
X159480285Y-89153333D01*
X159175523Y-89153333D01*
X159937428Y-88853333D02*
X159975523Y-88820000D01*
X160051714Y-88786666D01*
X160242190Y-88786666D01*
X160318380Y-88820000D01*
X160356476Y-88853333D01*
X160394571Y-88920000D01*
X160394571Y-88986666D01*
X160356476Y-89086666D01*
X159899333Y-89486666D01*
X160394571Y-89486666D01*
%TO.C,R1*%
X159649333Y-86946666D02*
X159416000Y-86613333D01*
X159249333Y-86946666D02*
X159249333Y-86246666D01*
X159516000Y-86246666D01*
X159582666Y-86280000D01*
X159616000Y-86313333D01*
X159649333Y-86380000D01*
X159649333Y-86480000D01*
X159616000Y-86546666D01*
X159582666Y-86580000D01*
X159516000Y-86613333D01*
X159249333Y-86613333D01*
X160316000Y-86946666D02*
X159916000Y-86946666D01*
X160116000Y-86946666D02*
X160116000Y-86246666D01*
X160049333Y-86346666D01*
X159982666Y-86413333D01*
X159916000Y-86446666D01*
%TD*%
M02*
